<?xml version="1.0" encoding="UTF-8"?>
<!DOCTYPE svg PUBLIC "-//W3C//DTD SVG 1.1//EN" "http://www.w3.org/Graphics/SVG/1.1/DTD/svg11.dtd">
<!-- Creator: CorelDRAW 2020 -->
<svg xmlns="http://www.w3.org/2000/svg" xml:space="preserve" width="1151.29mm" height="347.764mm" version="1.1" style="shape-rendering:geometricPrecision; text-rendering:geometricPrecision; image-rendering:optimizeQuality; fill-rule:evenodd; clip-rule:evenodd"
viewBox="0 0 73777.6 22285.52"
 xmlns:xlink="http://www.w3.org/1999/xlink"
 xmlns:xodm="http://www.corel.com/coreldraw/odm/2003">
 <defs>
  <style type="text/css">
   <![CDATA[
    .fil69 {fill:#2C479C}
    .fil68 {fill:#2D489C}
    .fil67 {fill:#2D489D}
    .fil66 {fill:#2D499D}
    .fil65 {fill:#2E499D}
    .fil64 {fill:#2E499E}
    .fil63 {fill:#2E4A9E}
    .fil62 {fill:#2F4A9E}
    .fil61 {fill:#2F4B9E}
    .fil60 {fill:#304B9F}
    .fil59 {fill:#304C9F}
    .fil58 {fill:#314C9F}
    .fil57 {fill:#314CA0}
    .fil56 {fill:#314DA0}
    .fil55 {fill:#324DA0}
    .fil54 {fill:#324EA0}
    .fil53 {fill:#324EA1}
    .fil52 {fill:#334EA1}
    .fil51 {fill:#334FA1}
    .fil50 {fill:#344FA1}
    .fil49 {fill:#344FA2}
    .fil48 {fill:#3450A2}
    .fil47 {fill:#3550A2}
    .fil46 {fill:#3551A2}
    .fil45 {fill:#3551A3}
    .fil44 {fill:#3651A3}
    .fil43 {fill:#3652A3}
    .fil42 {fill:#3752A3}
    .fil41 {fill:#3752A4}
    .fil40 {fill:#3753A4}
    .fil39 {fill:#3853A4}
    .fil38 {fill:#3854A4}
    .fil37 {fill:#3854A5}
    .fil36 {fill:#3954A5}
    .fil35 {fill:#3955A5}
    .fil34 {fill:#3A55A6}
    .fil33 {fill:#3A56A6}
    .fil32 {fill:#3B56A6}
    .fil31 {fill:#3B56A7}
    .fil30 {fill:#3B57A7}
    .fil29 {fill:#3C57A7}
    .fil28 {fill:#3C58A7}
    .fil27 {fill:#3C58A8}
    .fil26 {fill:#3D58A8}
    .fil25 {fill:#3D59A8}
    .fil24 {fill:#3E59A8}
    .fil23 {fill:#3E59A9}
    .fil22 {fill:#3E5AA9}
    .fil21 {fill:#3F5AA9}
    .fil20 {fill:#3F5BA9}
    .fil19 {fill:#3F5BAA}
    .fil18 {fill:#405BAA}
    .fil17 {fill:#405CAA}
    .fil16 {fill:#415CAA}
    .fil15 {fill:#415CAB}
    .fil14 {fill:#415DAB}
    .fil13 {fill:#425DAB}
    .fil12 {fill:#425EAB}
    .fil11 {fill:#425EAC}
    .fil10 {fill:#435EAC}
    .fil9 {fill:#435FAC}
    .fil8 {fill:#445FAD}
    .fil7 {fill:#4460AD}
    .fil6 {fill:#4560AD}
    .fil5 {fill:#4561AD}
    .fil4 {fill:#4561AE}
    .fil3 {fill:#4661AE}
    .fil2 {fill:#4662AE}
    .fil1 {fill:#4662AF}
    .fil0 {fill:#4763AF}
    .fil70 {fill:#FCFCFC}
    .fil71 {fill:#324DA0;fill-rule:nonzero}
   ]]>
  </style>
 </defs>
 <g id="Capa_x0020_1">
  <metadata id="CorelCorpID_0Corel-Layer"/>
  <g id="_921065192">
   <path class="fil0" d="M129.32 18442.63l0 -14599.71c-84.54,361.46 -129.32,737.7 -129.32,1123.86l0 12352.03c0,386.15 44.79,762.38 129.32,1123.82z"/>
   <path class="fil0" d="M220.56 18778.26l0 -15270.98c-56,180.64 -101.74,365.62 -136.91,554.2l0 14162.59c35.17,188.58 80.91,373.57 136.91,554.19z"/>
   <path class="fil0" d="M304.24 19025.14l0 -15764.77c-48.79,132.14 -91.77,266.99 -129.3,404.03l0 14956.72c37.53,137.03 80.51,271.88 129.3,404.01z"/>
   <path class="fil0" d="M387.91 19236.42l0 -16187.33c-47.15,111.59 -90.3,225.23 -129.32,340.73l0 15505.9c39.02,115.49 82.18,229.11 129.32,340.7z"/>
   <path class="fil0" d="M479.15 19439.12l0 -16592.75c-46.14,96.81 -89.36,195.24 -129.28,295.31l0 16002.14c39.92,100.06 83.14,198.49 129.28,295.29z"/>
   <path class="fil1" d="M562.82 19606.4l0 -16927.32c-45.61,87.09 -88.81,175.62 -129.31,265.61l0 16396.12c40.5,89.98 83.69,178.5 129.31,265.59z"/>
   <path class="fil1" d="M646.49 19759.62l0 -17233.77c-45.3,79.57 -88.38,160.53 -129.33,242.72l0 16748.34c40.96,82.19 84.03,163.14 129.33,242.71z"/>
   <path class="fil2" d="M737.78 19913.47l0 -17541.47c-44.92,72.69 -88.11,146.55 -129.32,221.63l0 17098.23c41.21,75.08 84.41,148.93 129.32,221.62z"/>
   <path class="fil2" d="M821.46 20044.14l0 -17802.82c-44.73,67.6 -87.84,136.34 -129.3,206.17l0 17390.49c41.46,69.82 84.57,138.56 129.3,206.16z"/>
   <path class="fil2" d="M912.72 20177.7l0 -18069.95c-44.52,62.78 -87.68,126.57 -129.32,191.43l0 17687.1c41.64,64.85 84.81,128.65 129.32,191.42z"/>
   <path class="fil2" d="M996.43 20292.33l0 -18299.21c-44.45,59.06 -87.49,119.21 -129.32,180.24l0 17938.73c41.84,61.03 84.88,121.18 129.32,180.23z"/>
   <path class="fil2" d="M1080.02 20400.08l0 -18514.72c-44.3,55.65 -87.34,112.32 -129.27,169.86l0 18175.02c41.93,57.53 84.97,114.19 129.27,169.84z"/>
   <path class="fil2" d="M1171.3 20511.26l0 -18737.09c-44.17,52.34 -87.31,105.55 -129.32,159.68l0 18417.74c42.02,54.12 85.16,107.34 129.32,159.67z"/>
   <path class="fil2" d="M1254.99 20607.89l0 -18930.35c-44.05,49.59 -87.23,99.95 -129.31,151.26l0 18627.85c42.08,51.3 85.26,101.66 129.31,151.24z"/>
   <path class="fil3" d="M1346.24 20707.89l0 -19130.36c-46.6,49.7 -92.35,100.19 -136.91,151.75l0 18826.87c44.56,51.56 90.31,102.04 136.91,151.74z"/>
   <path class="fil4" d="M1429.9 20794.99l0 -19304.57c-43.88,44.59 -87.09,89.84 -129.28,136.05l0 19032.49c42.19,46.2 85.4,91.44 129.28,136.03z"/>
   <path class="fil4" d="M1513.57 20878.05l0 -19470.69c-43.83,42.52 -87.04,85.67 -129.3,129.75l0 19211.21c42.26,44.08 85.47,87.23 129.3,129.74z"/>
   <path class="fil4" d="M1604.86 20964.44l0 -19643.48c-43.81,40.42 -86.96,81.53 -129.3,123.47l0 19396.54c42.34,41.94 85.49,83.05 129.3,123.47z"/>
   <path class="fil4" d="M1688.48 21039.84l0 -19794.28c-43.74,38.58 -86.91,77.81 -129.27,117.88l0 19558.54c42.36,40.06 85.53,79.28 129.27,117.87z"/>
   <path class="fil4" d="M1772.22 21112.05l0 -19938.72c-43.7,36.87 -86.9,74.32 -129.31,112.64l0 19713.45c42.4,38.31 85.61,75.76 129.31,112.63z"/>
   <path class="fil4" d="M1863.44 21187.2l0 -20089.02c-43.67,35.12 -86.85,70.8 -129.3,107.34l0 19874.34c42.45,36.53 85.63,72.21 129.3,107.33z"/>
   <path class="fil5" d="M1947.13 21253.06l0 -20220.75c-43.61,33.58 -86.83,67.63 -129.28,102.6l0 20015.57c42.45,34.96 85.67,69.02 129.28,102.59z"/>
   <path class="fil5" d="M2038.38 21321.7l0 -20358.03c-46.18,33.92 -91.93,68.41 -136.89,103.86l0 20150.32c44.96,35.44 90.7,69.93 136.89,103.85z"/>
   <path class="fil6" d="M2122.09 21381.94l0 -20478.52c-43.59,30.65 -86.75,61.88 -129.3,93.87l0 20290.79c42.55,31.99 85.71,63.21 129.3,93.86z"/>
   <path class="fil7" d="M2205.73 21439.68l0 -20593.99c-43.62,29.37 -86.66,59.52 -129.3,90.22l0 20413.56c42.63,30.7 85.68,60.84 129.3,90.21z"/>
   <path class="fil7" d="M2297.02 21499.84l0 -20714.32c-43.63,28.01 -86.61,56.92 -129.3,86.24l0 20541.86c42.69,29.31 85.67,58.23 129.3,86.23z"/>
   <path class="fil7" d="M2380.67 21552.13l0 -20818.91c-43.58,26.77 -86.61,54.32 -129.3,82.38l0 20654.15c42.69,28.06 85.72,55.6 129.3,82.38z"/>
   <path class="fil7" d="M2464.34 21602.28l0 -20919.22c-43.53,25.59 -86.65,51.83 -129.32,78.7l0 20761.83c42.68,26.86 85.79,53.1 129.32,78.69z"/>
   <path class="fil7" d="M2555.58 21654.6l0 -21023.86c-43.48,24.34 -86.6,49.25 -129.27,74.85l0 20874.17c42.67,25.59 85.79,50.5 129.27,74.84z"/>
   <path class="fil7" d="M2639.26 21700.46l0 -21115.59c-43.45,23.24 -86.63,46.93 -129.3,71.42l0 20972.76c42.67,24.48 85.85,48.17 129.3,71.41z"/>
   <path class="fil7" d="M2730.52 21748.21l0 -21211.09c-43.44,22.1 -86.58,44.71 -129.28,68.04l0 21075.01c42.7,23.33 85.84,45.94 129.28,68.04z"/>
   <path class="fil7" d="M2814.19 21789.89l0 -21294.45c-43.49,21.1 -86.52,42.99 -129.31,65.31l0 21163.85c42.78,22.32 85.81,44.2 129.31,65.3z"/>
   <path class="fil8" d="M2897.9 21829.3l0 -21373.27c-43.45,20.09 -86.53,40.83 -129.3,62.13l0 21249.02c42.77,21.29 85.85,42.03 129.3,62.12z"/>
   <path class="fil8" d="M2989.13 21870.3l0 -21455.28c-43.42,19.02 -86.53,38.61 -129.3,58.83l0 21337.62c42.77,20.22 85.88,39.81 129.3,58.83z"/>
   <path class="fil9" d="M3072.84 21906.14l0 -21526.96c-43.39,18.06 -86.54,36.6 -129.3,55.85l0 21415.27c42.76,19.24 85.91,37.78 129.3,55.84z"/>
   <path class="fil9" d="M3156.48 21940.35l0 -21595.39c-43.42,17.15 -86.48,35.03 -129.3,53.36l0 21488.67c42.82,18.33 85.88,36.2 129.3,53.35z"/>
   <path class="fil9" d="M3247.74 21975.17l0 -21665.02c-43.42,16.17 -86.49,33.02 -129.32,50.36l0 21564.32c42.84,17.33 85.91,34.18 129.32,50.35z"/>
   <path class="fil9" d="M3331.45 22005.32l0 -21725.32c-43.38,15.27 -86.5,31.12 -129.33,47.56l0 21630.21c42.83,16.44 85.95,32.28 129.33,47.56z"/>
   <path class="fil9" d="M3422.71 22036.47l0 -21787.63c-43.35,14.32 -86.48,29.13 -129.31,44.6l0 21698.43c42.83,15.47 85.95,30.29 129.31,44.6z"/>
   <path class="fil9" d="M3506.38 22063.52l0 -21841.75c-43.36,13.46 -86.47,27.48 -129.32,42.1l0 21757.56c42.85,14.61 85.97,28.63 129.32,42.09z"/>
   <path class="fil9" d="M3590.01 22088.51l0 -21891.72c-43.36,12.62 -86.43,25.89 -129.31,39.66l0 21812.4c42.87,13.76 85.95,27.04 129.31,39.66z"/>
   <path class="fil10" d="M3681.29 22114.01l0 -21942.73c-43.33,11.72 -86.43,24.01 -129.3,36.86l0 21869.01c42.86,12.85 85.97,25.14 129.3,36.86z"/>
   <path class="fil10" d="M3764.94 22135.93l0 -21986.56c-43.31,10.9 -86.44,22.29 -129.3,34.32l0 21917.92c42.86,12.03 85.99,23.42 129.3,34.32z"/>
   <path class="fil11" d="M3856.22 22158.24l0 -22031.19c-45.9,10.62 -91.52,22.02 -136.93,33.91l0 21963.39c45.42,11.89 91.03,23.27 136.93,33.9z"/>
   <path class="fil11" d="M3939.88 22176.55l0 -22067.8c-43.31,9.23 -86.4,19.07 -129.3,29.43l0 22008.94c42.9,10.36 85.99,20.19 129.3,29.43z"/>
   <path class="fil11" d="M4023.56 22193.57l0 -22101.86c-43.29,8.45 -86.4,17.44 -129.28,27l0 22047.86c42.88,9.57 85.99,18.55 129.28,27z"/>
   <path class="fil11" d="M4114.84 22210.67l0 -22136.05c-43.29,7.61 -86.42,15.69 -129.33,24.42l0 22087.2c42.91,8.72 86.04,16.82 129.33,24.43z"/>
   <path class="fil12" d="M4198.5 22224.61l0 -22163.92c-43.29,6.84 -86.36,14.28 -129.28,22.24l0 22119.45c42.92,7.95 85.99,15.4 129.28,22.24z"/>
   <path class="fil12" d="M4282.15 22236.9l0 -22188.52c-43.27,6.08 -86.36,12.71 -129.28,19.9l0 22148.71c42.92,7.19 86,13.83 129.28,19.9z"/>
   <path class="fil12" d="M4373.46 22248.96l0 -22212.64c-43.27,5.25 -86.37,11.03 -129.3,17.4l0 22177.83c42.93,6.37 86.03,12.14 129.3,17.4z"/>
   <path class="fil12" d="M4457.1 22258.58l0 -22231.89c-43.27,4.51 -86.36,9.63 -129.3,15.25l0 22201.38c42.94,5.63 86.03,10.74 129.3,15.25z"/>
   <path class="fil13" d="M4548.37 22267l0 -22248.71c-43.25,3.7 -86.34,7.97 -129.27,12.78l0 22223.15c42.94,4.81 86.02,9.08 129.27,12.78z"/>
   <path class="fil14" d="M4632.04 22273.47l0 -22261.66c-43.25,2.97 -86.35,6.47 -129.3,10.55l0 22240.56c42.95,4.08 86.05,7.58 129.3,10.55z"/>
   <path class="fil14" d="M4715.69 22278.81l0 -22272.34c-43.25,2.24 -86.34,5.06 -129.3,8.41l0 22255.52c42.96,3.35 86.05,6.17 129.3,8.41z"/>
   <path class="fil14" d="M4806.96 22282.38l0 -22279.49c-43.23,1.44 -86.33,3.45 -129.28,6l0 22267.48c42.95,2.55 86.05,4.56 129.28,6z"/>
   <path class="fil14" d="M4890.67 22284.45l0 -22283.63c-43.22,0.72 -86.32,1.99 -129.28,3.81l0 22276c42.96,1.83 86.06,3.1 129.28,3.81z"/>
   <path class="fil14" d="M4974.29 22285.52l0.01 0 0 -22285.52 -19.08 0c-36.83,0.14 -73.61,0.5 -110.25,1.44l0 22282.4c42.98,1.11 86.09,1.69 129.32,1.69z"/>
   <path class="fil14" d="M4974.29 22285.52l91.25 0 0 -22285.52 -110.32 0c-6.33,0.03 -12.63,0.19 -18.96,0.24l0 22284.79c12.69,0.1 25.32,0.49 38.03,0.49z"/>
   <polygon class="fil14" points="5019.91,22285.52 5149.21,22285.52 5149.21,0 5019.91,0 "/>
   <polygon class="fil14" points="5111.2,22285.52 5240.5,22285.52 5240.5,0 5111.2,0 "/>
   <polygon class="fil15" points="5194.91,22285.52 5324.21,22285.52 5324.21,0 5194.91,0 "/>
   <polygon class="fil16" points="5278.56,22285.52 5407.86,22285.52 5407.86,0 5278.56,0 "/>
   <polygon class="fil17" points="5369.84,22285.52 5499.15,22285.52 5499.15,0 5369.84,0 "/>
   <polygon class="fil17" points="5453.49,22285.52 5582.82,22285.52 5582.82,0 5453.49,0 "/>
   <polygon class="fil17" points="5537.14,22285.52 5674.05,22285.52 5674.05,0 5537.14,0 "/>
   <polygon class="fil17" points="5628.43,22285.52 5757.75,22285.52 5757.75,0 5628.43,0 "/>
   <polygon class="fil17" points="5712.07,22285.52 5841.4,22285.52 5841.4,0 5712.07,0 "/>
   <polygon class="fil17" points="5803.37,22285.52 5932.66,22285.52 5932.66,0 5803.37,0 "/>
   <polygon class="fil17" points="5887.01,22285.52 6016.31,22285.52 6016.31,0 5887.01,0 "/>
   <polygon class="fil18" points="5970.66,22285.52 6099.96,22285.52 6099.96,0 5970.66,0 "/>
   <polygon class="fil18" points="6061.95,22285.52 6191.25,22285.52 6191.25,0 6061.95,0 "/>
   <polygon class="fil19" points="6145.65,22285.52 6274.96,22285.52 6274.96,0 6145.65,0 "/>
   <polygon class="fil19" points="6229.3,22285.52 6366.19,22285.52 6366.19,0 6229.3,0 "/>
   <polygon class="fil19" points="6320.53,22285.52 6449.86,22285.52 6449.86,0 6320.53,0 "/>
   <polygon class="fil20" points="6404.24,22285.52 6533.52,22285.52 6533.52,0 6404.24,0 "/>
   <polygon class="fil20" points="6495.47,22285.52 6624.79,22285.52 6624.79,0 6495.47,0 "/>
   <polygon class="fil20" points="6579.18,22285.52 6708.48,22285.52 6708.48,0 6579.18,0 "/>
   <polygon class="fil20" points="6662.82,22285.52 6792.12,22285.52 6792.12,0 6662.82,0 "/>
   <polygon class="fil21" points="6754.12,22285.52 6883.42,22285.52 6883.42,0 6754.12,0 "/>
   <polygon class="fil21" points="6837.76,22285.52 6967.06,22285.52 6967.06,0 6837.76,0 "/>
   <polygon class="fil21" points="6929.05,22285.52 7058.35,22285.52 7058.35,0 6929.05,0 "/>
   <polygon class="fil22" points="7012.69,22285.52 7141.97,22285.52 7141.97,0 7012.69,0 "/>
   <polygon class="fil22" points="7096.34,22285.52 7225.65,22285.52 7225.65,0 7096.34,0 "/>
   <polygon class="fil22" points="7187.63,22285.52 7316.91,22285.52 7316.91,0 7187.63,0 "/>
   <polygon class="fil22" points="7271.34,22285.52 7400.62,22285.52 7400.62,0 7271.34,0 "/>
   <polygon class="fil22" points="7354.99,22285.52 7484.29,22285.52 7484.29,0 7354.99,0 "/>
   <polygon class="fil22" points="7446.28,22285.52 7575.58,22285.52 7575.58,0 7446.28,0 "/>
   <polygon class="fil23" points="7529.92,22285.52 7659.23,22285.52 7659.23,0 7529.92,0 "/>
   <polygon class="fil24" points="7621.16,22285.52 7750.46,22285.52 7750.46,0 7621.16,0 "/>
   <polygon class="fil24" points="7704.86,22285.52 7834.17,22285.52 7834.17,0 7704.86,0 "/>
   <polygon class="fil25" points="7788.51,22285.52 7917.83,22285.52 7917.83,0 7788.51,0 "/>
   <polygon class="fil25" points="7879.8,22285.52 8009.08,22285.52 8009.08,0 7879.8,0 "/>
   <polygon class="fil25" points="7963.45,22285.52 8092.77,22285.52 8092.77,0 7963.45,0 "/>
   <polygon class="fil25" points="8047.09,22285.52 8184,22285.52 8184,0 8047.09,0 "/>
   <polygon class="fil25" points="8138.38,22285.52 8267.68,22285.52 8267.68,0 8138.38,0 "/>
   <polygon class="fil25" points="8222.03,22285.52 8351.36,22285.52 8351.36,0 8222.03,0 "/>
   <polygon class="fil26" points="8313.32,22285.52 8442.65,22285.52 8442.65,0 8313.32,0 "/>
   <polygon class="fil26" points="8396.97,22285.52 8526.27,22285.52 8526.27,0 8396.97,0 "/>
   <polygon class="fil26" points="8480.67,22285.52 8609.95,22285.52 8609.95,0 8480.67,0 "/>
   <polygon class="fil26" points="8571.9,22285.52 8701.23,22285.52 8701.23,0 8571.9,0 "/>
   <polygon class="fil27" points="8655.61,22285.52 8784.94,22285.52 8784.94,0 8655.61,0 "/>
   <polygon class="fil28" points="8746.84,22285.52 8876.16,22285.52 8876.16,0 8746.84,0 "/>
   <polygon class="fil28" points="8830.55,22285.52 8959.87,22285.52 8959.87,0 8830.55,0 "/>
   <polygon class="fil28" points="8914.2,22285.52 9043.5,22285.52 9043.5,0 8914.2,0 "/>
   <polygon class="fil28" points="9005.48,22285.52 9134.79,22285.52 9134.79,0 9005.48,0 "/>
   <polygon class="fil29" points="9089.13,22285.52 9218.43,22285.52 9218.43,0 9089.13,0 "/>
   <polygon class="fil29" points="9172.78,22285.52 9302.08,22285.52 9302.08,0 9172.78,0 "/>
   <polygon class="fil29" points="9264.07,22285.52 9393.35,22285.52 9393.35,0 9264.07,0 "/>
   <polygon class="fil29" points="9347.78,22285.52 9477.06,22285.52 9477.06,0 9347.78,0 "/>
   <polygon class="fil30" points="9439.01,22285.52 9568.3,22285.52 9568.3,0 9439.01,0 "/>
   <polygon class="fil30" points="9522.72,22285.52 9651.99,22285.52 9651.99,0 9522.72,0 "/>
   <polygon class="fil30" points="9606.36,22285.52 9735.64,22285.52 9735.64,0 9606.36,0 "/>
   <polygon class="fil30" points="9697.59,22285.52 9826.86,22285.52 9826.86,0 9697.59,0 "/>
   <polygon class="fil30" points="9781.29,22285.52 9910.6,22285.52 9910.6,0 9781.29,0 "/>
   <polygon class="fil31" points="9864.94,22285.52 10001.85,22285.52 10001.85,0 9864.94,0 "/>
   <polygon class="fil32" points="9956.23,22285.52 10085.54,22285.52 10085.54,0 9956.23,0 "/>
   <polygon class="fil32" points="10039.88,22285.52 10169.18,22285.52 10169.18,0 10039.88,0 "/>
   <polygon class="fil32" points="10131.17,22285.52 10260.47,22285.52 10260.47,0 10131.17,0 "/>
   <polygon class="fil32" points="10214.82,22285.52 10344.12,22285.52 10344.12,0 10214.82,0 "/>
   <polygon class="fil33" points="10298.46,22285.52 10427.79,22285.52 10427.79,0 10298.46,0 "/>
   <polygon class="fil33" points="10389.76,22285.52 10519.05,22285.52 10519.05,0 10389.76,0 "/>
   <polygon class="fil33" points="10473.4,22285.52 10602.7,22285.52 10602.7,0 10473.4,0 "/>
   <polygon class="fil33" points="10557.11,22285.52 10693.99,22285.52 10693.99,0 10557.11,0 "/>
   <polygon class="fil34" points="10648.33,22285.52 10777.67,22285.52 10777.67,0 10648.33,0 "/>
   <polygon class="fil34" points="10732.05,22285.52 10861.35,22285.52 10861.35,0 10732.05,0 "/>
   <polygon class="fil34" points="10823.27,22285.52 10952.6,22285.52 10952.6,0 10823.27,0 "/>
   <polygon class="fil34" points="10906.98,22285.52 11036.28,22285.52 11036.28,0 10906.98,0 "/>
   <polygon class="fil34" points="10990.63,22285.52 11119.93,22285.52 11119.93,0 10990.63,0 "/>
   <polygon class="fil35" points="11081.92,22285.52 11211.2,22285.52 11211.2,0 11081.92,0 "/>
   <polygon class="fil35" points="11165.57,22285.52 11294.89,22285.52 11294.89,0 11165.57,0 "/>
   <polygon class="fil35" points="11256.8,22285.52 11386.12,22285.52 11386.12,0 11256.8,0 "/>
   <polygon class="fil35" points="11340.5,22285.52 11469.83,22285.52 11469.83,0 11340.5,0 "/>
   <polygon class="fil35" points="11424.15,22285.52 11553.45,22285.52 11553.45,0 11424.15,0 "/>
   <polygon class="fil36" points="11515.44,22285.52 11644.76,22285.52 11644.76,0 11515.44,0 "/>
   <polygon class="fil36" points="11599.09,22285.52 11728.37,22285.52 11728.37,0 11599.09,0 "/>
   <polygon class="fil36" points="11682.8,22285.52 11819.68,22285.52 11819.68,0 11682.8,0 "/>
   <polygon class="fil36" points="11774.02,22285.52 11903.32,22285.52 11903.32,0 11774.02,0 "/>
   <polygon class="fil37" points="11857.73,22285.52 11987.01,22285.52 11987.01,0 11857.73,0 "/>
   <polygon class="fil37" points="11948.96,22285.52 12078.26,22285.52 12078.26,0 11948.96,0 "/>
   <polygon class="fil37" points="12032.67,22285.52 12161.95,22285.52 12161.95,0 12032.67,0 "/>
   <polygon class="fil37" points="12116.31,22285.52 12245.59,22285.52 12245.59,0 12116.31,0 "/>
   <polygon class="fil38" points="12207.6,22285.52 12336.86,22285.52 12336.86,0 12207.6,0 "/>
   <polygon class="fil39" points="12291.25,22285.52 12420.56,22285.52 12420.56,0 12291.25,0 "/>
   <polygon class="fil39" points="12374.9,22285.52 12511.78,22285.52 12511.78,0 12374.9,0 "/>
   <polygon class="fil39" points="12466.19,22285.52 12595.49,22285.52 12595.49,0 12466.19,0 "/>
   <polygon class="fil39" points="12549.84,22285.52 12679.14,22285.52 12679.14,0 12549.84,0 "/>
   <polygon class="fil39" points="12641.13,22285.52 12770.43,22285.52 12770.43,0 12641.13,0 "/>
   <polygon class="fil40" points="12724.83,22285.52 12854.11,22285.52 12854.11,0 12724.83,0 "/>
   <polygon class="fil40" points="12808.48,22285.52 12937.78,22285.52 12937.78,0 12808.48,0 "/>
   <polygon class="fil40" points="12899.71,22285.52 13029.01,22285.52 13029.01,0 12899.71,0 "/>
   <polygon class="fil40" points="12983.35,22285.52 13112.68,22285.52 13112.68,0 12983.35,0 "/>
   <polygon class="fil41" points="13074.65,22285.52 13203.95,22285.52 13203.95,0 13074.65,0 "/>
   <polygon class="fil41" points="13158.29,22285.52 13287.62,22285.52 13287.62,0 13158.29,0 "/>
   <polygon class="fil41" points="13241.94,22285.52 13371.26,22285.52 13371.26,0 13241.94,0 "/>
   <polygon class="fil41" points="13333.29,22285.52 13462.59,22285.52 13462.59,0 13333.29,0 "/>
   <polygon class="fil42" points="13416.94,22285.52 13546.24,22285.52 13546.24,0 13416.94,0 "/>
   <polygon class="fil43" points="13500.59,22285.52 13629.89,22285.52 13629.89,0 13500.59,0 "/>
   <polygon class="fil43" points="13591.87,22285.52 13721.2,22285.52 13721.2,0 13591.87,0 "/>
   <polygon class="fil43" points="13675.52,22285.52 13804.84,22285.52 13804.84,0 13675.52,0 "/>
   <polygon class="fil43" points="13766.75,22285.52 13896.08,22285.52 13896.08,0 13766.75,0 "/>
   <polygon class="fil44" points="13850.46,22285.52 13979.78,22285.52 13979.78,0 13850.46,0 "/>
   <polygon class="fil44" points="13934.17,22285.52 14063.44,22285.52 14063.44,0 13934.17,0 "/>
   <polygon class="fil44" points="14025.4,22285.52 14154.69,22285.52 14154.69,0 14025.4,0 "/>
   <polygon class="fil44" points="14109.1,22285.52 14238.41,22285.52 14238.41,0 14109.1,0 "/>
   <polygon class="fil44" points="14192.75,22285.52 14329.66,22285.52 14329.66,0 14192.75,0 "/>
   <polygon class="fil44" points="14283.98,22285.52 14413.28,22285.52 14413.28,0 14283.98,0 "/>
   <polygon class="fil45" points="14367.69,22285.52 14496.96,22285.52 14496.96,0 14367.69,0 "/>
   <polygon class="fil45" points="14458.91,22285.52 14588.24,22285.52 14588.24,0 14458.91,0 "/>
   <polygon class="fil46" points="14542.62,22285.52 14671.95,22285.52 14671.95,0 14542.62,0 "/>
   <polygon class="fil47" points="14626.27,22285.52 14755.57,22285.52 14755.57,0 14626.27,0 "/>
   <polygon class="fil47" points="14717.62,22285.52 14846.92,22285.52 14846.92,0 14717.62,0 "/>
   <polygon class="fil47" points="14801.27,22285.52 14930.57,22285.52 14930.57,0 14801.27,0 "/>
   <polygon class="fil47" points="14892.62,22285.52 15021.7,22285.52 15021.7,0 14892.62,0 "/>
   <polygon class="fil47" points="14976.27,22285.52 15105.57,22285.52 15105.57,0 14976.27,0 "/>
   <polygon class="fil47" points="15059.85,22285.52 15189.18,22285.52 15189.18,0 15059.85,0 "/>
   <polygon class="fil48" points="15150.96,22285.52 15280.28,22285.52 15280.28,0 15150.96,0 "/>
   <polygon class="fil48" points="15234.85,22285.52 15364.18,22285.52 15364.18,0 15234.85,0 "/>
   <polygon class="fil48" points="15318.5,22285.52 15447.82,22285.52 15447.82,0 15318.5,0 "/>
   <polygon class="fil49" points="15409.6,22285.52 15538.91,22285.52 15538.91,0 15409.6,0 "/>
   <polygon class="fil49" points="15493.5,22285.52 15622.58,22285.52 15622.58,0 15493.5,0 "/>
   <polygon class="fil49" points="15584.6,22285.52 15713.9,22285.52 15713.9,0 15584.6,0 "/>
   <polygon class="fil49" points="15668.25,22285.52 15797.55,22285.52 15797.55,0 15668.25,0 "/>
   <polygon class="fil50" points="15751.9,22285.52 15881.19,22285.52 15881.19,0 15751.9,0 "/>
   <polygon class="fil50" points="15843.19,22285.52 15972.49,22285.52 15972.49,0 15843.19,0 "/>
   <polygon class="fil50" points="15926.83,22285.52 16056.16,22285.52 16056.16,0 15926.83,0 "/>
   <polygon class="fil51" points="16010.48,22285.52 16147.48,22285.52 16147.48,0 16010.48,0 "/>
   <polygon class="fil51" points="16101.83,22285.52 16231.15,22285.52 16231.15,0 16101.83,0 "/>
   <polygon class="fil52" points="16185.48,22285.52 16314.8,22285.52 16314.8,0 16185.48,0 "/>
   <polygon class="fil52" points="16276.77,22285.52 16406.09,22285.52 16406.09,0 16276.77,0 "/>
   <polygon class="fil52" points="16360.41,22285.52 16489.74,22285.52 16489.74,0 16360.41,0 "/>
   <polygon class="fil52" points="16444.06,22285.52 16573.36,22285.52 16573.36,0 16444.06,0 "/>
   <polygon class="fil52" points="16535.41,22285.52 16664.74,22285.52 16664.74,0 16535.41,0 "/>
   <polygon class="fil52" points="16619.06,22285.52 16748.36,22285.52 16748.36,0 16619.06,0 "/>
   <polygon class="fil52" points="16702.7,22285.52 16839.69,22285.52 16839.69,0 16702.7,0 "/>
   <polygon class="fil53" points="16794.06,22285.52 16923.36,22285.52 16923.36,0 16794.06,0 "/>
   <polygon class="fil54" points="16877.71,22285.52 17007.01,22285.52 17007.01,0 16877.71,0 "/>
   <polygon class="fil55" points="16968.99,22285.52 17098.08,22285.52 17098.08,0 16968.99,0 "/>
   <polygon class="fil55" points="17052.64,22285.52 17181.94,22285.52 17181.94,0 17052.64,0 "/>
   <path class="fil55" d="M17136.35 22285.52l60.78 0c22.91,0 45.69,-0.56 68.52,-0.88l0 -22284.01c-16.51,-0.22 -33.03,-0.45 -49.55,-0.63l-79.74 0 0 22285.52z"/>
   <path class="fil55" d="M17356.72 22282.65l0 -22280.01c-42.99,-1.38 -86.11,-2.15 -129.32,-2.49l0 22284.99c43.22,-0.34 86.34,-1.1 129.32,-2.49z"/>
   <path class="fil55" d="M17440.61 22279.42l0 -22273.57c-42.97,-2.11 -86.09,-3.61 -129.32,-4.63l0 22282.83c43.23,-1.03 86.35,-2.52 129.32,-4.63z"/>
   <path class="fil55" d="M17531.72 22273.85l0 -22262.42c-42.97,-2.92 -86.09,-5.18 -129.32,-7.04l0 22276.5c43.23,-1.86 86.36,-4.13 129.32,-7.04z"/>
   <path class="fil55" d="M17615.34 22267.49l0 -22249.7c-42.95,-3.65 -86.07,-6.71 -129.3,-9.29l0 22268.27c43.23,-2.58 86.34,-5.64 129.3,-9.29z"/>
   <path class="fil55" d="M17698.99 22259.97l0 -22234.67c-42.94,-4.39 -86.05,-8.17 -129.3,-11.44l0 22257.55c43.25,-3.27 86.36,-7.05 129.3,-11.44z"/>
   <path class="fil56" d="M17790.33 22249.48l0 -22213.69c-42.94,-5.2 -86.05,-9.79 -129.3,-13.9l0 22241.49c43.25,-4.11 86.36,-8.7 129.3,-13.9z"/>
   <path class="fil57" d="M17873.98 22238.56l0 -22191.84c-42.94,-5.95 -86.04,-11.35 -129.3,-16.2l0 22224.24c43.26,-4.86 86.36,-10.24 129.3,-16.19z"/>
   <path class="fil57" d="M17965.31 22225.22l0 -22165.14c-45.48,-7.18 -91.12,-13.87 -136.98,-19.81l0 22204.75c45.86,-5.93 91.5,-12.62 136.98,-19.8z"/>
   <path class="fil57" d="M18048.92 22211.22l0 -22137.15c-42.92,-7.54 -86.03,-14.47 -129.3,-20.89l0 22178.93c43.27,-6.43 86.38,-13.34 129.3,-20.88z"/>
   <path class="fil57" d="M18132.57 22195.61l0 -22105.93c-42.91,-8.32 -86.01,-16.06 -129.3,-23.26l0 22152.44c43.29,-7.2 86.39,-14.94 129.3,-23.26z"/>
   <path class="fil58" d="M18223.92 22177.09l0 -22068.89c-42.92,-9.17 -86,-17.81 -129.31,-25.86l0 22120.61c43.3,-8.04 86.39,-16.69 129.31,-25.86z"/>
   <path class="fil58" d="M18307.57 22158.7l0 -22032.12c-42.89,-9.95 -86.01,-19.24 -129.31,-28.06l0 22088.25c43.29,-8.82 86.42,-18.11 129.31,-28.06z"/>
   <path class="fil58" d="M18391.23 22138.23l0 -21991.16c-42.9,-10.75 -86.01,-20.9 -129.32,-30.52l0 22052.19c43.31,-9.62 86.43,-19.76 129.32,-30.51z"/>
   <path class="fil58" d="M18482.53 22114.38l0 -21943.46c-42.89,-11.64 -85.99,-22.72 -129.32,-33.22l0 22009.89c43.33,-10.5 86.43,-21.58 129.32,-33.21z"/>
   <path class="fil59" d="M18566.17 22091.09l0 -21896.87c-42.89,-12.46 -85.98,-24.45 -129.32,-35.76l0 21968.4c43.35,-11.31 86.43,-23.31 129.32,-35.76z"/>
   <path class="fil59" d="M18657.5 22063.69l0 -21842.08c-45.38,-14.14 -91.1,-27.47 -137.01,-40.33l0 21922.73c45.91,-12.85 91.63,-26.19 137.01,-40.33z"/>
   <path class="fil60" d="M18741.17 22036.54l0 -21787.77c-42.86,-14.21 -85.97,-27.8 -129.32,-40.85l0 21869.47c43.35,-13.05 86.47,-26.65 129.32,-40.85z"/>
   <path class="fil60" d="M18824.82 22007.97l0 -21730.63c-42.86,-15.07 -85.95,-29.61 -129.32,-43.52l0 21817.67c43.38,-13.91 86.47,-28.45 129.32,-43.52z"/>
   <path class="fil60" d="M18916.17 21974.98l0 -21664.65c-42.86,-16.03 -85.93,-31.61 -129.32,-46.47l0 21757.57c43.4,-14.86 86.47,-30.43 129.32,-46.46z"/>
   <path class="fil60" d="M18999.79 21942.96l0 -21600.61c-42.8,-16.9 -85.94,-33.08 -129.3,-48.81l0 21698.21c43.36,-15.73 86.5,-31.9 129.3,-48.8z"/>
   <path class="fil60" d="M19083.44 21908.81l0 -21532.3c-42.8,-17.81 -85.92,-35 -129.3,-51.64l0 21635.57c43.38,-16.64 86.5,-33.82 129.3,-51.63z"/>
   <path class="fil60" d="M19174.73 21869.69l0 -21454.06c-42.81,-18.83 -85.89,-37.12 -129.31,-54.76l0 21563.58c43.42,-17.65 86.5,-35.92 129.31,-54.76z"/>
   <path class="fil60" d="M19258.38 21832.06l0 -21378.79c-42.81,-19.8 -85.86,-39.15 -129.31,-57.74l0 21494.27c43.45,-18.6 86.49,-37.94 129.31,-57.74z"/>
   <path class="fil61" d="M19349.54 21788.95l0 -21292.57c-42.77,-20.85 -85.88,-41.08 -129.3,-60.71l0 21413.98c43.42,-19.63 86.53,-39.86 129.3,-60.7z"/>
   <path class="fil61" d="M19433.16 21747.16l0 -21208.99c-42.74,-21.84 -85.9,-42.93 -129.33,-63.55l0 21336.09c43.43,-20.62 86.59,-41.71 129.33,-63.54z"/>
   <path class="fil62" d="M19516.8 21703.24l0 -21121.14c-42.67,-22.83 -85.7,-45.02 -129.08,-66.63l0 21254.41c43.38,-21.61 86.42,-43.8 129.08,-66.63z"/>
   <path class="fil62" d="M19608.15 21653.08l0 -21020.81c-42.74,-24.04 -85.83,-47.51 -129.32,-70.31l0 21161.44c43.5,-22.79 86.58,-46.27 129.32,-70.31z"/>
   <path class="fil62" d="M19691.8 21605.01l0 -20924.67c-42.75,-25.15 -85.79,-49.85 -129.32,-73.74l0 21072.14c43.54,-23.89 86.58,-48.59 129.32,-73.73z"/>
   <path class="fil62" d="M19775.42 21554.88l0 -20824.41c-42.69,-26.25 -85.78,-51.88 -129.3,-76.87l0 20978.14c43.52,-24.99 86.61,-50.62 129.3,-76.87z"/>
   <path class="fil62" d="M19866.79 21497.46l0 -20709.57c-42.63,-27.5 -85.82,-54.21 -129.32,-80.43l0 20870.42c43.51,-26.22 86.69,-52.92 129.32,-80.42z"/>
   <path class="fil62" d="M19950.42 21442.19l0 -20599.04c-42.61,-28.72 -85.79,-56.62 -129.31,-84.04l0 20767.11c43.52,-27.41 86.7,-55.33 129.31,-84.04z"/>
   <path class="fil62" d="M20041.71 21379.12l0 -20472.88c-42.6,-30.1 -85.75,-59.43 -129.3,-88.21l0 20649.28c43.55,-28.77 86.7,-58.1 129.3,-88.2z"/>
   <path class="fil62" d="M20125.35 21318.6l0 -20351.84c-42.6,-31.43 -85.7,-62.2 -129.3,-92.28l0 20536.4c43.6,-30.09 86.7,-60.85 129.3,-92.28z"/>
   <path class="fil63" d="M20209 21255.48l0 -20225.58c-42.6,-32.83 -85.65,-65.08 -129.3,-96.55l0 20418.66c43.65,-31.46 86.7,-63.72 129.3,-96.54z"/>
   <path class="fil64" d="M20300.36 21183.37l0 -20081.36c-42.57,-34.41 -85.61,-68.27 -129.31,-101.29l0 20283.94c43.7,-33.02 86.74,-66.88 129.31,-101.29z"/>
   <path class="fil64" d="M20384 21114.27l0 -19943.15c-42.57,-35.96 -85.54,-71.45 -129.31,-105.98l0 20155.1c43.76,-34.53 86.74,-70.02 129.31,-105.97z"/>
   <path class="fil65" d="M20475.33 21035.24l0 -19785.08c-45.01,-39.9 -90.56,-79.19 -136.98,-117.47l0 20020.01c46.42,-38.28 91.98,-77.56 136.98,-117.46z"/>
   <path class="fil65" d="M20559 20959.38l0 -19633.37c-42.48,-39.4 -85.48,-78.25 -129.3,-116.17l0 19865.69c43.82,-37.92 86.82,-76.76 129.3,-116.16z"/>
   <path class="fil65" d="M20642.61 20880.06l0 -19474.72c-42.43,-41.2 -85.47,-81.76 -129.32,-121.44l0 19717.59c43.86,-39.68 86.9,-80.24 129.32,-121.43z"/>
   <path class="fil65" d="M20733.94 20789.05l0 -19292.7c-42.39,-43.32 -85.38,-86.02 -129.31,-127.79l0 19548.27c43.92,-41.76 86.91,-84.47 129.31,-127.79z"/>
   <path class="fil65" d="M20817.61 20701.47l0 -19117.51c-42.34,-45.4 -85.36,-90.16 -129.33,-133.96l0 19385.41c43.97,-43.79 86.99,-88.55 129.33,-133.94z"/>
   <path class="fil65" d="M20901.26 20609.52l0 -18933.61c-42.28,-47.65 -85.29,-94.62 -129.33,-140.61l0 19214.82c44.04,-45.99 87.05,-92.96 129.33,-140.6z"/>
   <path class="fil66" d="M20992.61 20503.72l0 -18722.01c-42.22,-50.32 -85.19,-100 -129.32,-148.61l0 19019.22c44.13,-48.61 87.1,-98.28 129.32,-148.6z"/>
   <path class="fil67" d="M21076.25 20401.43l0 -18517.43c-42.11,-52.96 -85.15,-105.14 -129.32,-156.32l0 18830.06c44.18,-51.18 87.22,-103.36 129.32,-156.31z"/>
   <path class="fil67" d="M21167.33 20283.74l0 -18282.03c-41.9,-56.01 -85.15,-110.96 -129.3,-165.14l0 18612.3c44.15,-54.17 87.4,-109.11 129.3,-165.13z"/>
   <path class="fil67" d="M21250.95 20168.22l0 -18050.98c-41.76,-59.26 -84.85,-117.53 -129.08,-174.86l0 18400.68c44.23,-57.34 87.32,-115.58 129.08,-174.84z"/>
   <path class="fil67" d="M21334.81 20045.15l0 -17804.84c-41.72,-63.11 -84.83,-125.23 -129.3,-186.31l0 18177.44c44.47,-61.08 87.57,-123.19 129.3,-186.3z"/>
   <path class="fil67" d="M21425.92 19902.48l0 -17519.5c-41.54,-67.73 -84.66,-134.39 -129.3,-199.95l0 17919.39c44.64,-65.56 87.75,-132.22 129.3,-199.94z"/>
   <path class="fil67" d="M21509.59 19760.73l0 -17235.97c-41.37,-72.72 -84.45,-144.35 -129.32,-214.75l0 17665.46c44.87,-70.4 87.95,-142.03 129.32,-214.74z"/>
   <path class="fil67" d="M21593.24 19607.41l0 -16929.34c-41.08,-78.5 -84.24,-155.75 -129.32,-231.74l0 17392.8c45.09,-75.99 88.24,-153.23 129.32,-231.72z"/>
   <path class="fil68" d="M21684.59 19423.66l0 -16561.81c-40.81,-86.5 -83.76,-171.8 -129.32,-255.52l0 17072.84c45.57,-83.71 88.52,-169.01 129.32,-255.5z"/>
   <path class="fil68" d="M21768.23 19237.03l0 -16188.56c-40.19,-95.18 -83.47,-188.73 -129.32,-280.82l0 16750.2c45.85,-92.09 89.14,-185.65 129.32,-280.82z"/>
   <path class="fil69" d="M21859.52 19004.4l0 -15723.28c-39.44,-108.43 -82.67,-215.06 -129.32,-319.87l0 16363c46.65,-104.81 89.88,-211.43 129.32,-319.85z"/>
   <path class="fil69" d="M21943.23 18753.07l0 -15220.6c-38.34,-126.14 -81.39,-250.28 -129.32,-372.03l0 15964.64c47.93,-121.75 90.98,-245.88 129.32,-372.01z"/>
   <path class="fil69" d="M22026.86 18442.66l0 -14599.78c-36,-154 -79.26,-305.28 -129.31,-453.51l0 15506.79c50.05,-148.23 93.31,-299.51 129.31,-453.5z"/>
   <path class="fil69" d="M22118.17 17930.35l0 -13575.13c-28.09,-225.97 -71.64,-447.3 -129.32,-663.05l0 14901.19c57.69,-215.73 101.23,-437.05 129.32,-663.01z"/>
   <path class="fil69" d="M22156.13 17318.8l0 -12352.03c0,-309.02 -28.91,-611.61 -83.65,-905.44l0 14162.89c54.74,-293.82 83.65,-596.41 83.65,-905.42z"/>
   <path class="fil70" d="M11971.77 8199.22l0 -1186.59c0,-562.78 380.32,-699.63 654.13,-699.63 258.64,0 2061.21,0 2061.21,0l0 -2525.43 -2692.48 0c-2525.24,0 -3095.66,1871.42 -3095.66,3072.8l0 1338.84 -1460.33 0 0 2943.35 1475.56 0c0,3339.27 0,7362.82 0,7362.82l2943.54 0c0,0 0,-4069.23 0,-7362.82l2601.18 0 91.29 -1163.78 174.87 -1779.57 -2753.31 0z"/>
   <path class="fil71" d="M69974.97 6647.72l-1901.62 334.71 0 8701.23 1901.62 0 0 -2875.17 15.41 0 1733.96 2875.17 2053.26 0 -1893.61 -3194.6 1893.61 -2996.61 -2053.26 0 -1733.96 2730.32 -15.41 0 0 -5575.05zm-4388.83 5301.12l0 1262.71c0,175 -14.8,289.16 -14.8,395.68 -99.24,380.2 -380.94,578 -821.67,578l-45.62 0c-555.38,0 -837.08,-266.29 -837.08,-798.68l0 -1559.15c0,-175.06 23.42,-289.09 61.03,-395.73 136.84,-273.68 380.32,-417.93 715.04,-417.93l152.25 0c136.84,0 266.29,14.8 372.31,68.42 281.7,83.22 418.55,372.31 418.55,866.67l0 0zm1757.38 -1064.54c-372.93,-973.92 -1186.59,-1483.08 -2525.43,-1483.08l-182.46 0c-411.14,0 -760.64,68.42 -1118.17,174.44 -1042.34,334.71 -1566.91,1118.17 -1566.91,2320.16l0 1361.4c0,509.58 91.23,928 266.29,1270.3 380.33,821.3 1216.8,1239.78 2487.21,1239.78 592.99,0 1095.36,-91.35 1513.28,-266.35 844.48,-372.74 1277.81,-1148.43 1277.81,-2350.18l0 -1133.51c0,-441.35 -53.01,-813.66 -151.63,-1132.96l0 0zm-7621.28 1064.54l0 1262.71c0,175 -15.41,289.16 -15.41,395.68 -106.64,380.2 -380.32,578 -821.68,578l-45.61 0c-562.78,0 -836.47,-266.29 -836.47,-798.68l0 -1559.15c0,-175.06 22.81,-289.09 53.63,-395.73 136.23,-273.68 387.72,-417.93 722.43,-417.93l151.63 0c136.85,0 266.29,14.8 372.93,68.42 273.68,83.22 418.54,372.31 418.54,866.67l0 0zm1749.36 -1064.54c-372.93,-973.92 -1186.59,-1483.08 -2517.41,-1483.08l-190.47 0c-403.13,0 -753.25,68.42 -1110.16,174.44 -1049.74,334.71 -1574.92,1118.17 -1574.92,2320.16l0 1361.4c0,509.58 98.62,928 273.68,1270.3 380.94,821.3 1217.41,1239.78 2487.21,1239.78 586.21,0 1087.96,-91.35 1506.5,-266.35 851.88,-372.74 1277.2,-1148.43 1277.2,-2350.18l0 -1133.51c0,-441.35 -45.61,-813.66 -151.64,-1132.96l0 0zm-7826.54 829.07l0 1581.83c0,152.2 -15.29,266.35 -45.8,372.81 -98.81,357.39 -418.23,532.4 -965.98,532.4l-152.19 0 -555.2 -37.98 0 -2890.4c289.15,-175.06 593.17,-258.28 890.03,-258.28l288.91 0c365.1,83.22 540.22,319.3 540.22,699.63l0 0zm1696.36 -1452.87c-266.9,-570.18 -943.72,-859.27 -2046.48,-859.27 -311.72,0 -851.81,60.4 -1369.04,235.46l0 -2988.97 -1909.15 334.71 0 8526.22c920.3,175 1757.02,258.65 2532.89,258.65 1125.63,0 1916.48,-220.67 2380.63,-646.55 220.67,-220.67 364.92,-418.48 411.15,-570.61 151.64,-243.29 220.06,-874.69 220.06,-1870.93l0 -616.1c0,-950.74 -68.42,-1559.14 -220.06,-1802.62l0 0zm-8032.3 1490.48l0 99.24 -1559.15 0 0 -289.09c0,-478.95 220.43,-722.43 768.17,-722.43 197.81,0 372.56,45.61 509.52,144.24 190.16,76.43 281.46,334.71 281.46,768.05l0 0zm1696.17 -1110.16c-380.45,-836.47 -1216.92,-1255.01 -2494.85,-1255.01 -456.2,0 -874.69,61.03 -1300.56,197.87 -920.3,364.92 -1376.74,1079.95 -1376.74,2175.31l0 1490.6c0,380.2 76.19,760.71 220.61,1133.27 395.43,920.3 1277.76,1384.45 2639.4,1384.45 524.69,0 1003.95,-22.87 1407.01,-68.54 654.01,-106.46 973.44,-159.84 973.44,-190.11l0 -1551.75 -7.46 0c-730.2,152.13 -1429.88,220.67 -2091.54,220.67l-152.19 0c-311.97,0 -509.77,-38.03 -684.52,-83.65 -258.65,-91.35 -387.91,-349.99 -387.91,-768.17l0 -182.7 3475.75 0 0 -1102.76c0,-593.23 -68.48,-1057.38 -220.43,-1399.49l0 0zm-7971.15 -1232.2c-1171.23,0 -1985.08,387.72 -2441.53,1156.38 -228.07,319.3 -342.23,927.69 -342.23,1809.9l0 418.48c0,729.95 68.48,1239.72 205.51,1543.79 410.53,950.81 1270.05,1430.13 2578.25,1430.13 365.1,0 676.88,-22.87 943.17,-61.09 684.52,-98.74 1019.11,-167.29 1019.11,-205.26l0 -1536.34 -7.46 0c-753.01,144.42 -1293.1,220.61 -1627.68,220.61l-136.97 0c-456.2,0 -760.52,-91.29 -897.49,-266.29 -114.16,-91.35 -175,-395.61 -175,-912.65l0 -790.97c0,-570.36 68.48,-897.68 197.8,-981.51 152.13,-151.64 456.45,-228.07 905.2,-228.07 387.9,0 1057.08,76.43 1741.6,205.26l0 -1543.49c-684.52,-175.06 -1330.82,-258.89 -1962.28,-258.89l0 0zm-5468.53 4046.41l0 699.69c-342.3,152.13 -639.09,250.94 -882.33,250.94 -349.99,0 -524.93,-174.94 -524.93,-509.52 0,-159.83 38.15,-266.35 91.29,-327.13 83.65,-76 304.32,-113.98 676.88,-113.98l639.09 0zm1657.96 -3057.69c-288.92,-601 -1041.98,-904.89 -2266.54,-904.89l-1916.6 0 -175 1581.71 1794.98 0c334.59,0 578.07,45.61 715.03,152.25 129.07,68.42 190.16,319.3 190.16,753.25l0 212.79 -897.56 0c-867.16,0 -1414.72,68.3 -1635.33,220.43 -524.69,243.48 -791.04,730.2 -791.04,1483.26l0 45.61c0,433.65 114.22,813.91 334.59,1148.43 334.84,448.74 791.04,669.42 1361.65,669.42l159.59 0c593.17,0 1156.07,-167.3 1711.34,-456.45 7.7,91.35 22.81,182.7 53.32,266.29 15.16,38.03 30.33,83.65 37.97,114.22l1582.08 0 0 -3810.64c0,-623.8 -83.65,-1110.76 -258.64,-1475.68l0 0zm-6989.77 -3879.06c-296.61,0 -570.61,38.22 -897.49,167.66 -661.71,266.29 -996.54,889.48 -996.54,1863.4l0 943.11 -935.46 0 0 1589.72 935.46 0 0 4601.49 1894.04 0 0 -4601.49 1285.4 0 175 -1589.72 -1460.4 0 0 -715.04c0,-220.67 22.81,-380.32 75.94,-471.55 83.65,-136.84 243.48,-205.26 502.07,-205.26l859.52 0 0 -1582.33 -1437.53 0z"/>
  </g>
 </g>
</svg>
