<?xml version="1.0" encoding="UTF-8"?>
<!DOCTYPE svg PUBLIC "-//W3C//DTD SVG 1.1//EN" "http://www.w3.org/Graphics/SVG/1.1/DTD/svg11.dtd">
<!-- Creator: CorelDRAW 2020 -->
<svg xmlns="http://www.w3.org/2000/svg" xml:space="preserve" width="1152.97mm" height="347.761mm" version="1.1" style="shape-rendering:geometricPrecision; text-rendering:geometricPrecision; image-rendering:optimizeQuality; fill-rule:evenodd; clip-rule:evenodd"
viewBox="0 0 71316.34 21510.65"
 xmlns:xlink="http://www.w3.org/1999/xlink"
 xmlns:xodm="http://www.corel.com/coreldraw/odm/2003">
 <defs>
  <style type="text/css">
   <![CDATA[
    .fil0 {fill:#533D97}
    .fil1 {fill:#553D97}
    .fil2 {fill:#563D97}
    .fil3 {fill:#573D97}
    .fil4 {fill:#593D97}
    .fil5 {fill:#5A3D97}
    .fil6 {fill:#5B3D97}
    .fil7 {fill:#5D3D97}
    .fil8 {fill:#5E3D97}
    .fil9 {fill:#603D97}
    .fil10 {fill:#613D97}
    .fil11 {fill:#623D97}
    .fil12 {fill:#643D97}
    .fil13 {fill:#653D97}
    .fil14 {fill:#663D97}
    .fil15 {fill:#683D97}
    .fil16 {fill:#693D97}
    .fil17 {fill:#6B3D97}
    .fil18 {fill:#6C3D97}
    .fil19 {fill:#6D3D97}
    .fil20 {fill:#6F3D97}
    .fil21 {fill:#703D97}
    .fil22 {fill:#713D96}
    .fil23 {fill:#733D96}
    .fil24 {fill:#743D96}
    .fil25 {fill:#763D96}
    .fil26 {fill:#773D96}
    .fil27 {fill:#783D96}
    .fil28 {fill:#7A3D96}
    .fil29 {fill:#7B3D96}
    .fil30 {fill:#7C3D96}
    .fil31 {fill:#7E3D96}
    .fil32 {fill:#7F3D96}
    .fil33 {fill:#813D96}
    .fil34 {fill:#823D96}
    .fil35 {fill:#833D96}
    .fil36 {fill:#853D96}
    .fil37 {fill:#863D96}
    .fil38 {fill:#873D96}
    .fil39 {fill:#893D96}
    .fil40 {fill:#8A3D96}
    .fil41 {fill:#8B3D96}
    .fil42 {fill:#8D3D96}
    .fil43 {fill:#8E3D96}
    .fil44 {fill:#903D96}
    .fil45 {fill:#913D96}
    .fil46 {fill:#923D95}
    .fil47 {fill:#943D95}
    .fil48 {fill:#953D95}
    .fil49 {fill:#963D95}
    .fil50 {fill:#983D95}
    .fil51 {fill:#993D95}
    .fil52 {fill:#9B3D95}
    .fil53 {fill:#9C3D95}
    .fil54 {fill:#9D3D95}
    .fil55 {fill:#9F3D95}
    .fil56 {fill:#A03D95}
    .fil57 {fill:#A13D95}
    .fil58 {fill:#A23D95}
    .fil59 {fill:#A33C93}
    .fil60 {fill:#A43C91}
    .fil61 {fill:#A53B8F}
    .fil62 {fill:#A63B8D}
    .fil63 {fill:#A73A8B}
    .fil64 {fill:#A83989}
    .fil65 {fill:#A93987}
    .fil66 {fill:#AA3886}
    .fil67 {fill:#AB3884}
    .fil68 {fill:#AC3782}
    .fil69 {fill:#AD3780}
    .fil70 {fill:#AE367E}
    .fil71 {fill:#AF357C}
    .fil72 {fill:#B0357A}
    .fil73 {fill:#B13478}
    .fil74 {fill:#B23476}
    .fil75 {fill:#B33374}
    .fil76 {fill:#B43373}
    .fil77 {fill:#B53271}
    .fil79 {fill:#B6316D}
    .fil78 {fill:#B6316F}
    .fil80 {fill:#B7306B}
    .fil81 {fill:#B83069}
    .fil82 {fill:#B92F67}
    .fil83 {fill:#BA2E65}
    .fil84 {fill:#BB2E63}
    .fil85 {fill:#BC2D61}
    .fil86 {fill:#BD2D5F}
    .fil87 {fill:#BE2C5E}
    .fil88 {fill:#BF2C5C}
    .fil89 {fill:#C02B5A}
    .fil90 {fill:#C12A58}
    .fil91 {fill:#C22A56}
    .fil92 {fill:#C32954}
    .fil93 {fill:#C42952}
    .fil94 {fill:#C52850}
    .fil95 {fill:#C6284E}
    .fil96 {fill:#C7274C}
    .fil97 {fill:#C8264B}
    .fil98 {fill:#C92649}
    .fil99 {fill:#CA2547}
    .fil100 {fill:#CB2545}
    .fil101 {fill:#CC2443}
    .fil102 {fill:#CD2341}
    .fil103 {fill:#CE233F}
    .fil104 {fill:#CF223D}
    .fil105 {fill:#D0223B}
    .fil106 {fill:#D12139}
    .fil107 {fill:#D22137}
    .fil108 {fill:#D32036}
    .fil109 {fill:#D41F34}
    .fil110 {fill:#D51F32}
    .fil112 {fill:#D61E2F}
    .fil111 {fill:#D61E30}
    .fil113 {fill:#D6202F}
    .fil114 {fill:#D7222E}
    .fil115 {fill:#D7242E}
    .fil116 {fill:#D8262E}
    .fil117 {fill:#D8282E}
    .fil118 {fill:#D9292D}
    .fil119 {fill:#D92B2D}
    .fil120 {fill:#DA2D2D}
    .fil121 {fill:#DA2F2D}
    .fil122 {fill:#DB312C}
    .fil123 {fill:#DB332C}
    .fil124 {fill:#DB352C}
    .fil125 {fill:#DC372B}
    .fil126 {fill:#DC392B}
    .fil127 {fill:#DD3B2B}
    .fil128 {fill:#DD3C2B}
    .fil129 {fill:#DE3E2A}
    .fil130 {fill:#DE402A}
    .fil131 {fill:#DF422A}
    .fil132 {fill:#DF4429}
    .fil133 {fill:#DF4629}
    .fil134 {fill:#E04829}
    .fil135 {fill:#E04A29}
    .fil136 {fill:#E14C28}
    .fil137 {fill:#E14E28}
    .fil138 {fill:#E24F28}
    .fil139 {fill:#E25128}
    .fil140 {fill:#E35327}
    .fil141 {fill:#E35527}
    .fil142 {fill:#E45727}
    .fil143 {fill:#E45926}
    .fil144 {fill:#E45B26}
    .fil145 {fill:#E55D26}
    .fil146 {fill:#E55F26}
    .fil147 {fill:#E66125}
    .fil148 {fill:#E66225}
    .fil149 {fill:#E76425}
    .fil150 {fill:#E76625}
    .fil151 {fill:#E86824}
    .fil152 {fill:#E86A24}
    .fil153 {fill:#E86C24}
    .fil154 {fill:#E96E23}
    .fil155 {fill:#E97023}
    .fil156 {fill:#EA7223}
    .fil157 {fill:#EA7423}
    .fil158 {fill:#EB7622}
    .fil159 {fill:#EB7722}
    .fil160 {fill:#EC7922}
    .fil161 {fill:#EC7B21}
    .fil162 {fill:#ED7D21}
    .fil163 {fill:#ED7F21}
    .fil164 {fill:#ED8121}
    .fil165 {fill:#EE8320}
    .fil166 {fill:#EE8520}
    .fil167 {fill:#EF8720}
    .fil168 {fill:#EF8920}
    .fil169 {fill:#F08A1F}
    .fil170 {fill:#F08C1F}
    .fil171 {fill:#F18E1F}
    .fil172 {fill:#F1901E}
    .fil173 {fill:#F1921E}
    .fil174 {fill:#F2941E}
    .fil175 {fill:#F2961E}
    .fil176 {fill:#F3981D}
    .fil177 {fill:#F39A1D}
    .fil178 {fill:#F49C1D}
    .fil179 {fill:#F49D1D}
    .fil180 {fill:#F59F1C}
    .fil181 {fill:#F5A11C}
    .fil182 {fill:#F5A31B}
    .fil183 {fill:#F5A51A}
    .fil184 {fill:#F5A71A}
    .fil185 {fill:#F5A919}
    .fil186 {fill:#F5AA18}
    .fil187 {fill:#F5AC17}
    .fil188 {fill:#F5AE17}
    .fil189 {fill:#F5B016}
    .fil190 {fill:#F5B215}
    .fil191 {fill:#F5B414}
    .fil192 {fill:#F5B614}
    .fil193 {fill:#F5B713}
    .fil194 {fill:#F5B912}
    .fil195 {fill:#F5BB11}
    .fil196 {fill:#F5BD11}
    .fil197 {fill:#F5BF10}
    .fil198 {fill:#F6C10F}
    .fil199 {fill:#F6C20E}
    .fil200 {fill:white}
    .fil201 {fill:url(#id0)}
   ]]>
  </style>
  <linearGradient id="id0" gradientUnits="userSpaceOnUse" x1="32014.85" y1="17653.75" x2="69832.98" y2="106.43">
   <stop offset="0" style="stop-opacity:1; stop-color:#F5AE17"/>
   <stop offset="0.301961" style="stop-opacity:1; stop-color:#D61E30"/>
   <stop offset="1" style="stop-opacity:1; stop-color:#DD3C2B"/>
  </linearGradient>
 </defs>
 <g id="Capa_x0020_1">
  <metadata id="CorelCorpID_0Corel-Layer"/>
  <g id="_921740504">
   <path class="fil0" d="M19426.44 934.92l-1090.26 -604.2c390.75,153.99 756.75,358.16 1090.26,604.2z"/>
   <path class="fil1" d="M19892.32 1325.68l-2126.02 -1178.86c809.08,205.88 1537.98,618.95 2126.02,1178.86z"/>
   <path class="fil2" d="M20157.76 1599.4l-2763.17 -1531.3c211.93,36.15 419.35,86.05 621.05,149.29l1680.83 931.99c163.54,139.67 317.69,290.02 461.3,450.02z"/>
   <path class="fil3" d="M20366.37 1847.82l-3287.89 -1823.08c164.16,16.76 325.91,41.97 484.88,75.05l2476.39 1372.69c115.11,119.4 224.21,244.64 326.62,375.34z"/>
   <path class="fil4" d="M20524.49 2061.82l-3710.9 -2056.47c139.1,6.42 276.69,18.85 412.54,37.03l3044.28 1687.05c89.37,106.97 174.11,217.9 254.07,332.39z"/>
   <path class="fil5" d="M20665.2 2275.09l-4105.43 -2275.09 32.23 0c115.09,0 229.2,4.36 342.33,12.46l3520.38 1952.02c74.06,100.65 144.29,204.26 210.49,310.62z"/>
   <path class="fil6" d="M20778.42 2466.76l-4448.74 -2466.76 262.32 0c30.71,0 61.29,0.59 91.87,1.18l3914.24 2169.2c63.54,96.46 123.69,195.3 180.3,296.38z"/>
   <path class="fil7" d="M20876.77 2651.69l-4784.9 -2651.69 352.35 0 4280.63 2373.54c53.58,90.88 104.27,183.62 151.92,278.14z"/>
   <path class="fil8" d="M20961.3 2827.58l-5099.48 -2827.58 352.08 0 4613.66 2556.75c47.23,88.74 92.03,178.94 133.74,270.83z"/>
   <path class="fil9" d="M21034.46 2998.31l-5410.44 -2998.31 352.71 0 4944.24 2741.51c40.29,84.28 78.07,169.93 113.48,256.8z"/>
   <path class="fil10" d="M21098.68 3164.15l-5708.26 -3164.15 349.63 0 5260.49 2916.84c34.92,81.33 67.68,163.77 98.14,247.3z"/>
   <path class="fil11" d="M21155.45 3329.79l-6005.16 -3329.79 351.65 0 5566.89 3085.05c31.02,80.58 59.91,162.18 86.62,244.74z"/>
   <path class="fil12" d="M21202.56 3483.2l-6287.3 -3483.2 357.12 0 5855.61 3246.89c26.8,77.92 51.75,156.67 74.57,236.3z"/>
   <path class="fil13" d="M21243.79 3638.11l-6561.15 -3638.11 351.38 0 6145.27 3405.52c23.41,76.75 44.91,154.3 64.5,232.59z"/>
   <path class="fil14" d="M21278.55 3787.33l-6834.16 -3787.33 360.28 0 6418.61 3559.02c20.25,75.41 38.68,151.53 55.27,228.31z"/>
   <path class="fil15" d="M21307.81 3932.88l-7092.88 -3932.88 351.29 0 6695.36 3710.43c17.17,73.52 32.53,147.71 46.24,222.45z"/>
   <path class="fil16" d="M21331.89 4076.14l-7355.43 -4076.14 352.97 0 6964.19 3859.42c14.33,71.71 27.21,143.92 38.27,216.72z"/>
   <path class="fil17" d="M21351.08 4218.11l-7611.54 -4218.11 353.53 0 7227.63 4007.65c11.63,69.68 21.82,139.82 30.38,210.45z"/>
   <path class="fil18" d="M21366.03 4359.88l-7862.79 -4359.88 358.45 0 7479.94 4145.22c9.74,71.08 17.85,142.65 24.4,214.65z"/>
   <path class="fil19" d="M21376.14 4491.26l-8104.36 -4491.26 353.56 0 7733.83 4288.27c7.14,67.26 12.67,134.95 16.97,202.99z"/>
   <path class="fil20" d="M21382.86 4628.38l-8347.23 -4628.38 353.76 0 7982.22 4422.16c5.31,68.34 8.87,137.14 11.25,206.22z"/>
   <path class="fil21" d="M21385.57 4755.7l-8581.67 -4755.7 353.94 0 8222.36 4559.17c3.19,65.18 4.84,130.72 5.36,196.53z"/>
   <path class="fil22" d="M21386.06 4889.39l-8817.94 -4889.39 348.49 0 8468.17 4694c0.69,33.22 1.28,66.45 1.28,99.82l0 95.57z"/>
   <polygon class="fil23" points="21386.06,5015.34 12336.06,0 12681.87,0 21386.06,4823.65 "/>
   <polygon class="fil24" points="21386.06,5150.65 12091.91,0 12445.92,0 21386.06,4957.16 "/>
   <polygon class="fil25" points="21386.06,5279.98 11863.86,0 12213.92,0 21386.06,5082.9 "/>
   <polygon class="fil26" points="21386.06,5409.74 11624.33,0 11978.48,0 21386.06,5216.35 "/>
   <polygon class="fil27" points="21386.06,5539.27 11396.1,0 11746.14,0 21386.06,5342.25 "/>
   <polygon class="fil28" points="21386.06,5669.14 11156.25,0 11501.96,0 21386.06,5477.56 "/>
   <polygon class="fil29" points="21386.06,5799.65 10923.48,0 11274.14,0 21386.06,5606.95 "/>
   <polygon class="fil30" points="21386.06,5934.02 10684.43,0 11034.26,0 21386.06,5736.79 "/>
   <polygon class="fil31" points="21386.06,6063.66 10444.35,0 10806.4,0 21386.06,5866.24 "/>
   <polygon class="fil32" points="21386.06,6193.21 10216.73,0 10566.36,0 21386.06,5995.93 "/>
   <polygon class="fil33" points="21386.06,6322.82 9976.51,0 10338.96,0 21386.06,6125.46 "/>
   <polygon class="fil34" points="21386.06,6452.42 9749.26,0 10098.64,0 21386.06,6255.25 "/>
   <polygon class="fil35" points="21386.06,6582.18 9508.72,0 9861.83,0 21386.06,6386.48 "/>
   <polygon class="fil36" points="21386.06,6713.46 9271.8,0 9627.01,0 21386.06,6520.21 "/>
   <polygon class="fil37" points="21386.06,6847.2 9037.33,0 9393.84,0 21386.06,6645.73 "/>
   <polygon class="fil38" points="21386.06,6972.63 8803.86,0 9159.58,0 21386.06,6779.36 "/>
   <polygon class="fil39" points="21386.06,7106.43 8569.78,0 8920.56,0 21386.06,6906.03 "/>
   <polygon class="fil40" points="21386.06,7231.99 8336.14,0 8692.01,0 21386.06,7038.76 "/>
   <polygon class="fil41" points="21386.06,7365.75 8102.26,0 8449.72,0 21386.06,7170.86 "/>
   <polygon class="fil42" points="21386.06,7491.18 7868.48,0 8214.18,0 21386.06,7299.6 "/>
   <polygon class="fil43" points="21386.06,7626.53 7624.26,0 7980.18,0 21386.06,7433.36 "/>
   <polygon class="fil44" points="21386.06,7756.2 7397.83,0 7746.14,0 21386.06,7558.91 "/>
   <polygon class="fil45" points="21386.06,7885.75 7156.31,0 7512.68,0 21386.06,7692.66 "/>
   <polygon class="fil46" points="21386.06,8016.28 6924.35,0 7278.47,0 21386.06,7818.13 "/>
   <polygon class="fil47" points="21386.06,8144.98 6688.63,0 7034.34,0 21386.06,7953.4 "/>
   <polygon class="fil48" points="21386.06,8275.71 6456.39,0 6808.11,0 21386.06,8083.29 "/>
   <polygon class="fil49" points="21386.06,8410.2 6218.44,0 6566.3,0 21386.06,8212.68 "/>
   <polygon class="fil50" points="21386.06,8539.57 5976.46,0 6340.69,0 21386.06,8342.4 "/>
   <polygon class="fil51" points="21386.06,8669.46 5750.95,0 6098.67,0 21386.06,8471.93 "/>
   <polygon class="fil52" points="21386.06,8798.94 5508.73,0 5872.87,0 21386.06,8601.8 "/>
   <polygon class="fil53" points="21386.06,8928.75 5283.48,0 5630.59,0 21386.06,8731.17 "/>
   <polygon class="fil54" points="21386.06,9058.02 5041.1,0 5393.8,0 21386.06,8862.47 "/>
   <polygon class="fil55" points="21386.06,9189.32 4804.22,0 5161.26,0 21386.06,8996.4 "/>
   <path class="fil56" d="M21386.06 9323.35l-16805.38 -9318.32c70.78,-3.14 141.86,-5.03 213.38,-5.03l0 0 132.05 0 16459.95 9121.78 0 201.57z"/>
   <path class="fil57" d="M21386.06 9448.56l-17015.48 -9429.47c107.54,-9.54 216.05,-15.5 325.42,-17.83l16690.06 9254.46 0 192.84z"/>
   <path class="fil58" d="M21386.06 9582.77l-17209.71 -9542.71c97.68,-12.72 196.32,-22.19 295.69,-28.9l16914.02 9370.53 0 201.08z"/>
   <path class="fil58" d="M21386.06 9707.83l-17394.66 -9639.72c94.3,-16.09 189.51,-29.4 285.53,-39.89l17109.12 9486.74 0 192.87z"/>
   <path class="fil58" d="M21386.06 9841.95l-17568 -9741.15c86.16,-18.02 173.14,-33.7 260.87,-47l17307.13 9596.48 0 191.67z"/>
   <path class="fil58" d="M21386.06 9967.05l-17734.67 -9828.02c81.83,-20.23 164.48,-38.3 247.86,-54.25l17486.81 9690.68 0 191.59z"/>
   <path class="fil58" d="M21386.06 10102.4l-17900.07 -9919.7c80.74,-23.07 162.39,-43.9 244.77,-62.76l17655.3 9789.57 0 192.89z"/>
   <path class="fil58" d="M21386.06 10232.47l-18044.81 -10005.57c74.82,-23.99 150.41,-46.16 226.74,-66.52l17818.06 9874.38 0 197.71z"/>
   <path class="fil58" d="M21386.06 10361.74l-18195.61 -10083.64c73.92,-26.47 148.65,-51.14 224.16,-74.02l17971.45 9964.89 0 192.77z"/>
   <path class="fil58" d="M21386.06 10492.45l-18333.68 -10162.71c70.09,-27.57 140.94,-53.62 212.56,-77.93l18121.12 10042.18 0 198.46z"/>
   <path class="fil58" d="M21386.06 10620.85l-18469.52 -10235.17c66.04,-28.36 132.88,-55.17 200.38,-80.6l18269.14 10124.18 0 191.59z"/>
   <path class="fil58" d="M21386.06 10751.69l-18597.35 -10308.72c64.94,-30.18 130.67,-58.9 197.12,-86.21l18400.23 10202.68 0 192.25z"/>
   <path class="fil58" d="M21386.06 10886.35l-18724.11 -10382.17c61.48,-30.8 123.64,-60.41 186.57,-88.61l18537.54 10273.09 0 197.69z"/>
   <path class="fil58" d="M21386.06 11015.59l-18849.84 -10446.2c62.63,-33.73 126,-66.25 190.23,-97.23l18659.61 10346.57 0 196.86z"/>
   <path class="fil58" d="M21386.06 11145.78l-18961.88 -10514.24c57.44,-32.93 115.64,-64.64 174.52,-95.24l18787.36 10411.58 0 197.9z"/>
   <path class="fil58" d="M21386.06 11274.78l-19079.59 -10573.55c58.6,-35.85 118.11,-70.31 178.31,-103.68l18901.28 10480.41 0 196.82z"/>
   <path class="fil58" d="M21386.06 11404.95l-19184.63 -10637.5c53.72,-34.8 108.27,-68.4 163.42,-101.08l19021.21 10546.95 0 191.63z"/>
   <path class="fil58" d="M21386.06 11534l-19294.99 -10692.75c53.05,-36.47 106.87,-71.86 161.41,-106.22l19133.58 10603.28 0 195.7z"/>
   <path class="fil58" d="M21386.06 11665.19l-19399.01 -10750.35c52.16,-37.92 105.05,-74.84 158.75,-110.68l19240.26 10668.4 0 192.63z"/>
   <path class="fil58" d="M21386.06 11799.51l-19497.57 -10811.07c48.85,-37.45 98.32,-74.11 148.62,-109.71l19348.95 10719.56 0 201.21z"/>
   <path class="fil58" d="M21386.06 11924.58l-19595.21 -10859.3c48.93,-39.54 98.52,-78.31 148.99,-115.95l19446.22 10782.67 0 192.57z"/>
   <path class="fil58" d="M21386.06 12058.94l-19688.06 -10916.72c45.87,-38.99 92.28,-77.36 139.59,-114.63l19548.46 10829.74 0 201.61z"/>
   <path class="fil58" d="M21386.06 12183.72l-19779.94 -10961.42c46.04,-41.16 92.68,-81.64 140.28,-121.04l19639.66 10889.89 0 192.57z"/>
   <path class="fil58" d="M21386.06 12318.17l-19867.1 -11016.03c43.02,-40.38 86.67,-80.09 131.14,-118.9l19735.96 10943.2 0 191.72z"/>
   <path class="fil58" d="M21386.06 12449.42l-19953.65 -11064.02c41.73,-41.16 84.15,-81.61 127.35,-121.25l19826.31 10987.35 0 197.92z"/>
   <path class="fil58" d="M21386.06 12578.39l-20040.01 -11105.69c41.84,-43.42 84.49,-86.06 127.92,-127.88l19912.09 11041.07 0 192.51z"/>
   <path class="fil58" d="M21386.06 12708.85l-20116.73 -11154.66c39.1,-42.49 78.96,-84.26 119.54,-125.33l19997.19 11081.89 0 198.1z"/>
   <path class="fil58" d="M21386.06 12837.58l-20197.77 -11193.17c39.18,-44.77 79.22,-88.77 120.01,-132.06l20077.76 11132.78 0 192.45z"/>
   <path class="fil59" d="M21386.06 12968.45l-20272.11 -11237.06c37.38,-44.79 75.59,-88.86 114.54,-132.26l20157.57 11170.84 0 198.48z"/>
   <path class="fil60" d="M21386.06 13096.81l-20345.71 -11275.06c35.36,-44.49 71.55,-88.3 108.42,-131.5l20237.29 11215.07 0 191.49z"/>
   <path class="fil61" d="M21386.06 13232.3l-20419.1 -11315.86c36.12,-47.84 73.19,-94.92 111.02,-141.34l20308.08 11260.66 0 196.54z"/>
   <path class="fil62" d="M21386.06 13362.75l-20484.01 -11358.22c33.01,-45.83 66.85,-91.01 101.41,-135.62l20382.6 11295.61 0 198.23z"/>
   <path class="fil63" d="M21386.06 13491.43l-20552.29 -11389.64c33.58,-49.12 68.1,-97.55 103.43,-145.36l20448.86 11338.6 0 196.39z"/>
   <path class="fil64" d="M21386.06 13621.99l-20612.75 -11429.48c30.64,-47.08 62.12,-93.57 94.35,-139.49l20518.41 11370.72 0 198.26z"/>
   <path class="fil65" d="M21386.06 13750.62l-20676.15 -11458.07c31.14,-50.51 63.2,-100.38 96.14,-149.65l20580.01 11411.24 0 196.48z"/>
   <path class="fil66" d="M21386.06 13881.22l-20732.05 -11495.59c28.3,-48.3 57.41,-96.07 87.33,-143.29l20644.72 11447.26 0 191.62z"/>
   <path class="fil67" d="M21386.06 14010.02l-20790.54 -11521.7c27.65,-49.97 56.16,-99.4 85.53,-148.28l20705.01 11474.27 0 195.71z"/>
   <path class="fil68" d="M21386.06 14141.23l-20844.9 -11551.8c26.84,-51.38 54.57,-102.24 83.21,-152.53l20761.69 11511.98 0 192.34z"/>
   <path class="fil69" d="M21386.06 14275.86l-20895.63 -11586.43c24.74,-50.2 50.32,-99.91 76.75,-149.11l20818.88 11533.6 0 201.94z"/>
   <path class="fil70" d="M21386.06 14400.45l-20945.15 -11607.43c24.41,-52.68 49.68,-104.89 75.93,-156.52l20869.21 11571.66 0 192.3z"/>
   <path class="fil71" d="M21386.06 14535.1l-20991.31 -11639.3c22.42,-51.53 45.64,-102.64 69.81,-153.23l20921.5 11590.6 0 201.92z"/>
   <path class="fil72" d="M21386.06 14659.82l-21036.02 -11657.74c21.19,-52.1 43.17,-103.79 66.12,-154.98l20969.9 11621.01 0 191.71z"/>
   <path class="fil73" d="M21386.06 14794.32l-21077.34 -11687.06c20,-52.72 40.76,-105.08 62.55,-156.91l21014.78 11652.58 0 191.39z"/>
   <path class="fil74" d="M21386.06 14925.74l-21117.21 -11709.32c18.79,-53.44 38.35,-106.53 58.97,-159.1l21058.24 11670.04 0 198.38z"/>
   <path class="fil75" d="M21386.06 15054.22l-21155.62 -11723.94c18.13,-56.07 37.09,-111.77 57.22,-166.93l21098.4 11698.73 0 192.14z"/>
   <path class="fil76" d="M21386.06 15185.34l-21189.53 -11745.66c16.6,-55.93 34.01,-111.52 52.59,-166.6l21136.94 11713.49 0 198.77z"/>
   <path class="fil77" d="M21386.06 15313.46l-21221.65 -11760.43c15.53,-57.52 31.89,-114.72 49.5,-171.38l21172.15 11739.66 0 192.15z"/>
   <path class="fil78" d="M21386.06 15444.55l-21250.44 -11779.45c13.99,-57.34 28.77,-114.38 44.81,-170.91l21205.62 11751.62 0 198.74z"/>
   <path class="fil79" d="M21386.06 15572.86l-21277.25 -11791.48c12.36,-56.84 25.52,-113.39 39.89,-169.48l21237.36 11769.38 0 191.58z"/>
   <path class="fil80" d="M21386.06 15708.13l-21302.04 -11805.1c11.58,-60.91 24.06,-121.53 37.94,-181.62l21264.1 11790.56 0 196.16z"/>
   <path class="fil81" d="M21386.06 15838.92l-21322.12 -11822.75c9.64,-58.39 20.11,-116.51 31.86,-174.19l21290.26 11798.39 0 198.55z"/>
   <path class="fil82" d="M21386.06 15967.35l-21341.01 -11826.55c8.63,-62.57 18.21,-124.85 29.25,-186.64l21311.76 11817.04 0 196.15z"/>
   <path class="fil83" d="M21386.06 16098.14l-21355.55 -11841.31c6.77,-59.94 14.42,-119.63 23.41,-178.9l21332.14 11821.84 0 198.36z"/>
   <path class="fil84" d="M21386.06 16226.66l-21368.27 -11841.81c5.5,-64.24 12.03,-128.2 20.07,-191.71l21348.2 11837.38 0 196.14z"/>
   <path class="fil85" d="M21386.06 16357.6l-21376.97 -11853.39c3.72,-61.52 8.42,-122.79 14.47,-183.68l21362.51 11845.4 0 191.68z"/>
   <path class="fil86" d="M21386.06 16485.86l-21383.15 -11850.08c2.09,-63.7 5.33,-127.12 9.92,-190.18l21373.22 11844.55 0 195.71z"/>
   <path class="fil87" d="M21386.06 16617.09l-21385.7 -11851.49c0.38,-65.54 2.05,-130.78 5.08,-195.69l21380.62 11855.16 0 192.02z"/>
   <path class="fil88" d="M21385.61 16751.89l-21385.61 -11858.04 0 -100.03c0,-30.55 0.59,-60.97 1.17,-91.39l21384.89 11847.36 0 166.8c0,11.8 -0.36,23.52 -0.45,35.3z"/>
   <path class="fil89" d="M21383.15 16874.68l-21383.15 -11849.9 0 -198.68 21386.06 11858.43 0 32.07c0,52.92 -1.19,105.57 -2.91,158.09z"/>
   <path class="fil90" d="M21376.97 17006.25l-21376.97 -11853.17 0 -191.98 21384.83 11850.99c-1.4,65.02 -3.97,129.75 -7.86,194.16z"/>
   <path class="fil91" d="M21368.25 17125.79l-21368.25 -11841.86 0 -191.59 21380.6 11848.7c-2.98,61.88 -7.09,123.46 -12.35,184.75z"/>
   <path class="fil92" d="M21355.53 17253.79l-21355.53 -11841.25 0 -191.7 21372.79 11850.9c-4.59,61 -10.44,121.67 -17.26,182.05z"/>
   <path class="fil93" d="M21340.06 17376.4l-21340.06 -11832.64 0 -192.04 21362.49 11838.37c-6.25,62.46 -13.82,124.54 -22.43,186.31z"/>
   <path class="fil94" d="M21322.05 17494.71l-21322.05 -11816.09 0 -198.58 21348.19 11837.33c-7.56,59.47 -16.43,118.54 -26.14,177.34z"/>
   <path class="fil95" d="M21300.77 17614.01l-21300.77 -11807.26 0 -195.85 21332.12 11821.77c-9.25,60.83 -19.83,121.25 -31.34,181.34z"/>
   <path class="fil96" d="M21277.23 17729.2l-21277.23 -11791.41 0 -198.33 21311.74 11816.97c-10.38,57.98 -22.06,115.51 -34.51,172.77z"/>
   <path class="fil97" d="M21250.4 17845.5l-21250.4 -11779.56 0 -195.65 21290.22 11798.37c-12.11,59.37 -25.53,118.27 -39.82,176.84z"/>
   <path class="fil98" d="M21221.61 17957.57l-21221.61 -11760.62 0 -191.36 21264.01 11783.89c-13.06,56.44 -27.36,112.41 -42.4,168.09z"/>
   <path class="fil99" d="M21188.43 18074.48l-21188.43 -11742.17 0 -202.34 21235.83 11774.85c-14.7,57 -30.67,113.48 -47.4,169.66z"/>
   <path class="fil100" d="M21153.62 18186.32l-21153.62 -11729.41 0 -192.15 21205.59 11751.63c-16.22,57.1 -33.7,113.7 -51.97,169.93z"/>
   <path class="fil101" d="M21117.16 18294.18l-21117.16 -11702.49 0 -202.53 21172.12 11739.8c-17.27,55.54 -35.74,110.55 -54.96,165.23z"/>
   <path class="fil102" d="M21077.31 18403.3l-21077.31 -11687.2 0 -192.18 21136.88 11713.63c-18.81,55.73 -38.79,110.93 -59.58,165.75z"/>
   <path class="fil103" d="M21035.99 18508.49l-21035.99 -11657.64 0 -202.31 21098.35 11698.73c-19.79,54.22 -40.69,107.91 -62.37,161.21z"/>
   <path class="fil104" d="M20991.23 18614.86l-20991.23 -11639.33 0 -191.64 21055.98 11675.21c-20.63,52.4 -42.34,104.26 -64.75,155.76z"/>
   <path class="fil105" d="M20945.2 18717.38l-20945.2 -11607.2 0 -191.94 21014.7 11642.08c-22.22,52.85 -45.46,105.17 -69.51,157.05z"/>
   <path class="fil106" d="M20895.55 18821.23l-20895.55 -11579.74 0 -198.42 20967.4 11626.01c-23.05,51.22 -47.07,101.89 -71.85,152.14z"/>
   <path class="fil107" d="M20841.97 18926.61l-20841.97 -11556.57 0 -192.62 20921.43 11590.65c-25.52,53.41 -52.05,106.24 -79.46,158.55z"/>
   <path class="fil108" d="M20790.5 19022.25l-20790.5 -11521.62 0 -198.12 20869.18 11571.58c-25.37,49.9 -51.62,99.27 -78.67,148.16z"/>
   <path class="fil109" d="M20731.98 19124.99l-20731.98 -11495.7 0 -192.16 20817.19 11536.26c-27.5,51.1 -55.93,101.62 -85.21,151.61z"/>
   <path class="fil110" d="M20676.1 19218.05l-20676.1 -11458.04 0 -191.63 20761.57 11505.45c-27.68,48.6 -56.16,96.68 -85.46,144.22z"/>
   <path class="fil111" d="M20612.71 19318.08l-20612.71 -11429.38 0 -191.68 20701.83 11478.81c-28.9,47.97 -58.61,95.38 -89.12,142.25z"/>
   <path class="fil112" d="M20548.71 19413.89l-20548.71 -11393.94 0 -192.35 20644.57 11440.82c-31.11,49.09 -63.05,97.59 -95.86,145.47z"/>
   <path class="fil112" d="M20483.82 19506.27l-20483.82 -11351.76 0 -198.28 20579.96 11411.48c-31.27,46.76 -63.3,92.96 -96.14,138.55z"/>
   <path class="fil112" d="M20415.12 19599.29l-20415.12 -11316.49 0 -196.04 20518.36 11370.82c-33.59,47.87 -67.97,95.14 -103.24,141.72z"/>
   <path class="fil113" d="M20345.74 19688.76l-20345.74 -11275.1 0 -198.02 20448.85 11338.48c-33.61,45.48 -67.95,90.39 -103.11,134.64z"/>
   <path class="fil114" d="M20269.75 19781.93l-20269.75 -11239.29 0 -196.56 20382.65 11295.48c-36.79,47.49 -74.4,94.31 -112.9,140.37z"/>
   <path class="fil115" d="M20197.84 19866.06l-20197.84 -11193.03 0 -191.6 20308.05 11254.06c-35.99,44.17 -72.7,87.72 -110.21,130.57z"/>
   <path class="fil116" d="M20116.71 19956.39l-20116.71 -11148.08 0 -202.18 20233.25 11218.92c-38.07,44.48 -76.9,88.27 -116.54,131.34z"/>
   <path class="fil117" d="M20035.47 20042.5l-20035.47 -11109.42 0 -192.45 20157.48 11170.88c-39.87,44.42 -80.55,88.08 -122.01,131z"/>
   <path class="fil118" d="M19953.46 20125.34l-19953.46 -11057.82 0 -202 20077.7 11132.75c-40.64,43.12 -82.07,85.46 -124.25,127.07z"/>
   <path class="fil119" d="M19867.09 20208.43l-19867.09 -11015.92 0 -192.54 19997.16 11081.76c-42.55,43.05 -85.93,85.27 -130.06,126.7z"/>
   <path class="fil120" d="M19779.85 20288.34l-19779.85 -10961.45 0 -202.19 19912.14 11041c-43.32,41.71 -87.45,82.56 -132.29,122.65z"/>
   <path class="fil121" d="M19688.04 20368.36l-19688.04 -10916.66 0 -191.62 19821.59 10990.72c-43.75,40.04 -88.35,79.14 -133.55,117.56z"/>
   <path class="fil122" d="M19590.1 20449.41l-19590.1 -10862.39 0 -193.08 19735.59 10933.71c-47.65,41.57 -96.23,82.06 -145.49,121.76z"/>
   <path class="fil123" d="M19497.29 20522.35l-19497.29 -10804.99 0 -198.06 19639.6 10890.05c-46.65,38.61 -94.22,76.13 -142.32,113z"/>
   <path class="fil124" d="M19393.42 20599.82l-19393.42 -10753.57 0 -192.97 19548.39 10829.75c-50.79,40.01 -102.57,78.8 -154.97,116.78z"/>
   <path class="fil125" d="M19295.01 20669.32l-19295.01 -10692.81 0 -197.82 19446.23 10782.55c-49.64,37.01 -100.13,72.96 -151.22,108.08z"/>
   <path class="fil126" d="M19184.5 20743.22l-19184.5 -10637.56 0 -192.63 19345.75 10721.06c-52.98,37.43 -106.73,73.83 -161.25,109.14z"/>
   <path class="fil127" d="M19079.79 20809.25l-19079.79 -10573.43 0 -191.56 19239.91 10662.4c-52.69,35.16 -106.01,69.48 -160.12,102.59z"/>
   <path class="fil128" d="M18961.89 20879.06l-18961.89 -10514.19 0 -191.62 19127.58 10606.07c-54.56,34.26 -109.72,67.63 -165.7,99.73z"/>
   <path class="fil129" d="M18843.1 20944.79l-18843.1 -10445.15 0 -196.17 19020.84 10540.97c-58.48,34.65 -117.72,68.15 -177.74,100.35z"/>
   <path class="fil130" d="M18723.71 21006.63l-18723.71 -10376.27 0 -197.73 18901.26 10480.44c-58.45,32.4 -117.66,63.56 -177.55,93.56z"/>
   <path class="fil131" d="M18597.33 21067.65l-18597.33 -10308.7 0 -196.18 18787.53 10411.45c-62.6,32.54 -126.04,63.61 -190.19,93.43z"/>
   <path class="fil132" d="M18469.48 21124.95l-18469.48 -10235.22 0 -197.91 18659.85 10346.51c-62.71,30.25 -126.2,59.06 -190.36,86.62z"/>
   <path class="fil133" d="M18329.75 21182.38l-18329.75 -10163.54 0 -195.75 18530.67 10274.97c-66.23,29.55 -133.19,57.74 -200.93,84.32z"/>
   <path class="fil134" d="M18195.65 21232.52l-18195.65 -10083.61 0 -191.59 18399.77 10196.74c-67.31,27.66 -135.34,53.83 -204.12,78.46z"/>
   <path class="fil135" d="M18044.22 21283.93l-18044.22 -9999.71 0 -201.7 18261.77 10125.85c-71.73,26.89 -144.27,52.07 -217.55,75.56z"/>
   <path class="fil136" d="M17891.79 21330.19l-17891.79 -9920.87 0 -192.64 18121.08 10042.15c-75.61,25.66 -152.08,49.44 -229.3,71.36z"/>
   <path class="fil137" d="M17734.65 21371.61l-17734.65 -9828.03 0 -201.9 17971.5 9964.86c-78.15,23.67 -157.11,45.36 -236.85,65.06z"/>
   <path class="fil138" d="M17567.94 21409.86l-17567.94 -9741.16 0 -192.81 17818.01 9874.4c-82.54,22 -165.88,41.96 -250.07,59.57z"/>
   <path class="fil139" d="M17394.69 21442.54l-17394.69 -9639.77 0 -195.66 17654.53 9783.76c-85.77,19.62 -172.44,36.76 -259.85,51.67z"/>
   <path class="fil140" d="M17210.08 21470.53l-17210.08 -9542.66 0 -191.57 17477.83 9691.3c-88.46,16.72 -177.69,31.19 -267.75,42.93z"/>
   <path class="fil141" d="M17005.24 21492.48l-17005.24 -9429.25 0 -193.59 17305.59 9587.41c-99.17,14.98 -199.35,26.68 -300.34,35.42z"/>
   <path class="fil142" d="M16804.03 21505.67l-16804.03 -9312.46 0 -197.55 17109.12 9486.77c-100.82,10.95 -202.56,18.71 -305.09,23.24z"/>
   <path class="fil143" d="M16570.37 21510.65l-16570.37 -9188.01 0 -192.95 16908.45 9370.16c-104.66,6.92 -210.12,10.8 -316.45,10.8l-21.63 0z"/>
   <path class="fil144" d="M16345.29 21510.65l-16345.29 -9058.12 0 -197.69 16690.31 9254.56c-32.71,0.67 -65.44,1.26 -98.31,1.26l-246.71 0z"/>
   <polygon class="fil145" points="16102.87,21510.65 -0,12581.84 -0,12388.89 16459.95,21510.65 "/>
   <polygon class="fil146" points="15877.42,21510.65 -0,12711.73 -0,12520.11 16223.23,21510.65 "/>
   <polygon class="fil147" points="15633.26,21510.65 -0,12847.06 -0,12649.62 15980.75,21510.65 "/>
   <polygon class="fil148" points="15397.18,21510.65 -0,12975.8 -0,12779.47 15755.38,21510.65 "/>
   <polygon class="fil149" points="15165.49,21510.65 -0,13106.42 -0,12908.83 15513.25,21510.65 "/>
   <polygon class="fil150" points="14929.57,21510.65 -0,13234.97 -0,13038.69 15287.31,21510.65 "/>
   <polygon class="fil151" points="14697.44,21510.65 -0,13365.63 -0,13168.06 15045.39,21510.65 "/>
   <polygon class="fil152" points="14455.73,21510.65 -0,13495.06 -0,13299.31 14808.77,21510.65 "/>
   <polygon class="fil153" points="14229.74,21510.65 -0,13624.79 -0,13433.17 14575.66,21510.65 "/>
   <polygon class="fil154" points="13985.57,21510.65 -0,13760.1 -0,13558.7 14341.2,21510.65 "/>
   <polygon class="fil155" points="13751.55,21510.65 -0,13885.63 -0,13692.52 14107.55,21510.65 "/>
   <polygon class="fil156" points="13517.91,21510.65 -0,14019.44 -0,13817.95 13873.36,21510.65 "/>
   <polygon class="fil157" points="13284.03,21510.65 -0,14144.89 -0,13951.74 13639.84,21510.65 "/>
   <polygon class="fil158" points="13049.98,21510.65 -0,14278.63 -0,14086.16 13401.49,21510.65 "/>
   <polygon class="fil159" points="12816.24,21510.65 -0,14404.3 -0,14212.64 13161.83,21510.65 "/>
   <polygon class="fil160" points="12572.06,21510.65 -0,14539.64 -0,14345.49 12933.59,21510.65 "/>
   <polygon class="fil161" points="12345.37,21510.65 -0,14669.22 -0,14471.83 12694.34,21510.65 "/>
   <polygon class="fil162" points="12104.75,21510.65 -0,14798.8 -0,14605.59 12460.05,21510.65 "/>
   <polygon class="fil163" points="11877.36,21510.65 -0,14928.44 -0,14731.08 12226.61,21510.65 "/>
   <polygon class="fil164" points="11636.94,21510.65 -0,15058.06 -0,14864.93 11992.25,21510.65 "/>
   <polygon class="fil165" points="11409.84,21510.65 -0,15187.58 -0,14996.15 11755.52,21510.65 "/>
   <polygon class="fil166" points="11165.55,21510.65 -0,15322.93 -0,15125.83 11514.85,21510.65 "/>
   <polygon class="fil167" points="10930.42,21510.65 -0,15451.8 -0,15255.38 11287.5,21510.65 "/>
   <polygon class="fil168" points="10697.87,21510.65 -0,15582.22 -0,15385.05 11047.23,21510.65 "/>
   <polygon class="fil169" points="10457.5,21510.65 -0,15712.02 -0,15514.55 10819.75,21510.65 "/>
   <polygon class="fil170" points="10229.86,21510.65 -0,15841.49 -0,15644.4 10579.64,21510.65 "/>
   <polygon class="fil171" points="9990.04,21510.65 -0,15971.36 -0,15775.68 10342.97,21510.65 "/>
   <polygon class="fil172" points="9762.07,21510.65 -0,16100.78 -0,15909.2 10107.78,21510.65 "/>
   <polygon class="fil173" points="9517.81,21510.65 -0,16236.15 -0,16034.87 9875.48,21510.65 "/>
   <polygon class="fil174" points="9285.84,21510.65 -0,16361.82 -0,16168.39 9639.97,21510.65 "/>
   <polygon class="fil175" points="9050.07,21510.65 -0,16495.33 -0,16294.31 9407.57,21510.65 "/>
   <polygon class="fil176" points="8818.05,21510.65 -0,16621.12 -0,16427.73 9172.1,21510.65 "/>
   <path class="fil177" d="M8582.38 21510.65l-8581.89 -4755.89c-0.11,-12.74 -0.49,-25.41 -0.49,-38.17l0 -154.62 8932.68 4948.68 -350.3 0z"/>
   <path class="fil178" d="M8350.36 21510.65l-8347.15 -4628.37c-1.89,-55.04 -3.2,-110.21 -3.2,-165.69l0 -27.8 8696.2 4821.86 -345.84 0z"/>
   <path class="fil179" d="M8106.36 21510.65l-8096.3 -4489.26c-4.21,-66.17 -7.13,-132.65 -8.71,-199.46l8463.3 4688.73 -358.29 0z"/>
   <path class="fil180" d="M7877.47 21510.65l-7856.91 -4354.14c-6.27,-68.04 -11.26,-136.43 -14.71,-205.21l8222.58 4559.35 -350.97 0z"/>
   <path class="fil181" d="M7638.73 21510.65l-7603.49 -4216.06c-8.27,-67.97 -15.28,-136.31 -20.68,-205.08l7977.86 4421.14 -353.69 0z"/>
   <path class="fil182" d="M7409.84 21510.65l-7355.67 -4076.35c-10.66,-70.17 -19.7,-140.86 -27.27,-211.96l7733.88 4288.3 -350.94 0z"/>
   <path class="fil183" d="M7171.06 21510.65l-7092.76 -3932.81c-12.9,-70.3 -24.07,-141.17 -33.85,-212.48l7480.16 4145.28 -353.54 0z"/>
   <path class="fil184" d="M6938.83 21510.65l-6830.59 -3784.13c-15.61,-72 -29.55,-144.6 -41.88,-217.72l7221.34 4001.85 -348.87 0z"/>
   <path class="fil185" d="M6697.77 21510.65l-6553.98 -3632.03c-18.72,-74.4 -35.71,-149.45 -50.89,-225.14l6956.3 3857.17 -351.43 0z"/>
   <path class="fil186" d="M6463.62 21510.65l-6279.32 -3480.7c-21.77,-75.83 -41.71,-152.42 -59.76,-229.71l6695.35 3710.41 -356.26 0z"/>
   <path class="fil187" d="M6229.86 21510.65l-5997.16 -3323.53c-25.24,-77.67 -48.55,-156.18 -69.87,-235.49l6418.67 3559.03 -351.63 0z"/>
   <path class="fil188" d="M5991.63 21510.65l-5703.66 -3162.6c-29.2,-79.98 -56.17,-161.01 -81.15,-242.88l6145.2 3405.48 -360.38 0z"/>
   <path class="fil189" d="M5762.11 21510.65l-5410.48 -2998.32c-33.36,-81.83 -64.66,-164.7 -93.56,-248.67l5855.87 3246.99 -351.84 0z"/>
   <path class="fil190" d="M5524.29 21510.65l-5099.49 -2827.58c-37.95,-83.62 -73.27,-168.63 -106.46,-254.69l5558.78 3082.26 -352.83 0z"/>
   <path class="fil191" d="M5294.24 21510.65l-4784.94 -2651.72c-42.75,-84.82 -83.1,-171.01 -120.86,-258.56l5251.51 2910.28 -345.71 0z"/>
   <path class="fil192" d="M5050.01 21510.65l-4438.33 -2459.62c-51.82,-92.18 -100.78,-186.14 -146.56,-281.9l4944.27 2741.52 -359.38 0z"/>
   <path class="fil193" d="M4819.87 21510.65l-4096.83 -2271.66c-57.97,-92.97 -112.84,-188.02 -164.48,-285.04l4613.58 2556.7 -352.27 0z"/>
   <path class="fil194" d="M4572.7 21505.32l-3711.26 -2056.71c-70.59,-101.08 -137.37,-204.99 -200.19,-311.48l4280.6 2373.52 -147.79 0c-74.19,0 -147.96,-1.95 -221.36,-5.34z"/>
   <path class="fil195" d="M4307.59 21485.92l-3287.85 -1823.07c-81.59,-104.13 -158.79,-211.82 -231.72,-322.52l3914.16 2169.14c-132.85,-2.54 -264.5,-10.27 -394.58,-23.55z"/>
   <path class="fil196" d="M3991.8 21442.61l-2763.64 -1531.53c-101.19,-112.75 -197.16,-230.28 -287.5,-352.2l3499.11 1938.55c-151.32,-11.29 -300.73,-29.71 -447.96,-54.82z"/>
   <path class="fil197" d="M3619.83 21363.87l-2126.14 -1178.93c-132.09,-125.78 -256.88,-259.14 -374.07,-399.04l3031.94 1681.2c-180.52,-24.53 -358,-59.03 -531.74,-103.23z"/>
   <path class="fil198" d="M3029.11 21171.66l-1053.04 -583.91c-220.52,-161.26 -426.88,-340.81 -616.86,-536.38l2446.38 1355.74c-267.53,-56.74 -527.09,-135.82 -776.48,-235.46z"/>
   <path class="fil199" d="M1689.5 20361.19l1681.14 932.16c-624.08,-195.65 -1194.22,-516.39 -1681.14,-932.16z"/>
   <path class="fil200" d="M16481.81 13985.68l0 0c0,1424.27 -1167.24,2591.45 -2591.44,2591.45l-6387.31 0c-1431.58,0 -2598.87,-1167.18 -2598.87,-2591.45l0 -6453.34c0,-1431.7 1167.29,-2598.87 2598.87,-2598.87l6387.31 0c1424.2,0 2591.44,1167.17 2591.44,2598.87l0 6453.34zm-1864.85 -10381.11l-7848.04 0c-1747.28,0 -3186.24,1431.7 -3186.24,3186.3l0 7928.84c0,1747.22 1438.96,3186.3 3186.24,3186.3l7848.04 0c1747.46,0 3186.3,-1439.08 3186.3,-3186.3l0 -7928.84c0,-1754.6 -1438.84,-3186.3 -3186.3,-3186.3l0 0z"/>
   <path class="fil200" d="M10689.31 13089.94l0 0c-1284.74,0 -2334.59,-1049.84 -2334.59,-2334.64 0,-1284.8 1049.85,-2334.65 2334.59,-2334.65 1292.12,0 2341.97,1049.85 2341.97,2334.65 0,1284.8 -1049.85,2334.64 -2341.97,2334.64l0 0zm0 -5865.92c-1938.15,0 -3523.95,1585.74 -3523.95,3531.28 0,1945.58 1585.81,3523.89 3523.95,3523.89 1945.53,0 3531.39,-1578.31 3531.39,-3523.89 0,-1945.53 -1585.86,-3531.28 -3531.39,-3531.28l0 0z"/>
   <path class="fil200" d="M17795.88 3582.56c403.87,0 726.83,-322.96 726.83,-719.45 0,-403.94 -322.96,-726.83 -726.83,-726.83 -396.32,0 -719.45,322.89 -719.45,726.83 0,396.49 323.14,719.45 719.45,719.45l0 0z"/>
   <path class="fil201" d="M70119.25 14036.97c426.01,-117.39 1013.25,-660.79 1167.35,-1204.13 22.01,-87.94 29.75,-168.85 29.75,-249.59 0,-278.87 -154.69,-433.15 -279.64,-455.22 -51.17,198.36 -256.44,602.06 -491.45,895.74 -154.1,190.93 -323.07,322.96 -492.05,322.96 -66.04,0 -124.95,-14.63 -176.12,-58.67 -154.1,-95.37 -190.99,-477.23 -190.99,-895.56 0,-433.14 44.03,-917.76 58.9,-1137.9 22.01,-367.28 51.17,-726.89 51.17,-1064.66 0,-242.22 -22.01,-469.8 -73.19,-682.8 -227.88,-734.09 -844.28,-991.12 -1314.31,-991.12 -499.19,0 -851.42,477.23 -1035.27,991.12 -212.41,557.97 -447.43,1101.31 -638.41,1857.41 7.14,-337.59 22.01,-572.61 22.01,-814.82 0,-411.07 -36.88,-837.02 -190.99,-1218.7 -183.25,-440.53 -660.43,-807.57 -1152.48,-807.57 -661.02,0 -888.31,616.64 -1072.16,1108.51 -308.2,770.91 -543.21,1732.58 -572.37,1886.86 80.32,-1292.06 80.32,-1409.62 80.32,-1505 0,-425.94 -58.31,-741.46 -124.35,-888.3 -161.83,-330.4 -550.95,-499.31 -874.03,-499.31 -80.92,0 -154.1,7.43 -227.29,29.45 51.17,256.85 58.9,491.87 58.9,726.65 0,470.03 -58.9,932.4 -88.06,1549.09 -36.89,477.23 -58.9,1108.69 -58.9,1607.99 0,256.8 14.28,484.38 22.01,638.66 36.89,425.71 660.43,741.53 1057.28,741.53 73.18,0 132.08,-14.88 183.26,-36.66 0,-448.02 235.02,-1475.79 528.94,-2437.64 322.48,-1064.42 719.33,-2040.9 954.35,-2040.9 235.02,0 278.45,587.42 278.45,1270.17 0,242.22 0,513.88 -14.28,756.1 -22.01,653.53 -102.93,1189.48 -102.93,1578.54 0,131.97 14.88,249.6 36.89,344.97 102.34,381.86 484.32,543.34 837.14,543.34 139.22,0 256.44,-29.45 374.24,-58.72l0 -66.1c0,-396.49 257.03,-1431.64 565.23,-2408.13 213,-667.98 462.3,-1299.44 675.3,-1666.48 110.07,-198.13 220.14,-315.76 301.06,-315.76 124.95,0 190.99,139.64 235.02,308.32 51.17,213 51.17,455.22 51.17,543.34 0,609.5 -66.04,1152.59 -66.04,1703.37 0,367.04 36.89,712.01 124.95,1064.42 168.97,631.51 763.36,1071.86 1299.44,1071.86 88.06,0 168.97,-14.63 242.16,-36.65l0 0zm-11232.65 -1013.19c-161.24,0 -323.07,-535.9 -323.07,-1108.45 0,-917.82 271.91,-2202.62 727.06,-2687.05 139.23,-132.21 271.91,-190.93 396.26,-190.93 367.1,0 661.02,506.69 690.17,866.29 -198.13,902.94 -558.09,1930.95 -917.46,2547.59 -198.72,344.97 -403.99,572.55 -572.97,572.55l0 0zm2914.82 264.29c-168.97,-73.36 -227.88,-477.23 -227.88,-1005.75 0,-646.09 80.92,-1512.38 146.96,-2143.66 36.88,-337.83 58.9,-616.7 58.9,-734.26 -14.87,-491.87 -639.01,-888.37 -984.1,-888.37 -124.35,0 -205.27,51.52 -213,161.48 -14.28,168.92 -22.01,286.49 -51.17,403.94 -330.22,-477.23 -866.29,-748.91 -1416.65,-748.91 -198.13,0 -403.99,36.66 -594.98,110.19 -924.6,374.42 -1387.5,1747.22 -1387.5,2892.56l0 117.45c22.01,719.39 227.88,1402.19 528.94,1871.99 264.18,425.94 638.41,682.8 1020.39,682.8 88.06,0 183.26,-14.64 286.19,-43.85 704.46,-249.65 1240.53,-1828.2 1402.37,-2364.1 0,44.09 -14.88,88.12 -14.88,132.21 -7.14,183.55 -22.01,330.39 -22.01,469.8 0,286.3 36.89,565.41 132.08,1013.13 44.03,183.55 190.99,367.05 374.25,499.31 235.02,183.49 609.26,322.96 881.17,322.96 690.17,0 1255.41,-602.06 1446.4,-1160.04 22.01,-88.17 29.15,-168.91 29.15,-249.6 0,-286.3 -154.1,-433.14 -279.05,-469.85 -102.34,381.92 -557.5,1174.61 -961.49,1174.61 -58.9,0 -102.93,-22.01 -154.1,-44.03l0 0zm-7040.42 -638.71c0,-286.3 110.08,-726.83 271.31,-1130.52 124.95,-322.96 264.18,-631.51 411.14,-866.29 301.06,455.16 852.01,756.1 1475.55,756.1 639.01,0 1167.35,-345.03 1167.35,-917.58 0,-264.29 -124.95,-433.15 -315.34,-455.23 -88.06,359.61 -426.01,667.93 -785.97,667.93 -29.15,0 -73.18,0 -110.07,-7.2 -535.48,-117.57 -734.21,-697.62 -734.21,-697.62 0,0 455.16,-521.03 455.16,-829.35 0,-440.58 -477.18,-822.5 -836.54,-822.5 -88.06,0 -168.97,22.08 -235.02,73.54 -168.97,139.46 -293.92,381.68 -367.1,704.88 -36.89,146.84 -51.76,293.68 -51.76,403.63 0,80.74 14.87,168.91 22.01,249.65 -109.48,213 -234.42,521.32 -330.22,859.09l0 -433.14c0,-470.03 -22.01,-932.4 -249.3,-1270.17 -176.11,-286.31 -470.03,-491.87 -793.11,-491.87 -80.32,0 -154.1,14.57 -235.02,36.65 22.01,124.83 44.03,301.12 44.03,535.96 0,257.03 -7.14,579.99 -22.01,939.77 -7.14,440.35 -22.01,1049.85 -22.01,1512.2 0,815.01 44.03,1585.92 176.71,1923.52 117.21,301.18 491.45,602.06 851.42,602.06 88.06,0 183.26,-7.2 257.04,-51.28 -29.75,-440.58 -44.03,-829.64 -44.03,-1292.24l0 0zm-3443.15 1218.7c0,0 -551.01,293.74 -895.98,462.59 -513.88,242.22 -1086.43,528.52 -1321.45,895.51 -66.16,124.89 -110.19,242.46 -110.19,367.28 0,616.64 903.12,741.47 1306.82,741.47 594.62,0 1255.23,-205.57 1615.19,-631.52 367.1,-433.14 543.22,-1093.87 624.13,-1717.71 572.37,-301.11 1086.44,-653.58 1365.49,-1028.01 110.07,-161.48 168.97,-315.52 168.97,-425.71 0,-235.02 -161.84,-396.49 -279.05,-462.6 -124.95,168.86 -308.2,359.78 -528.34,535.9 -190.99,161.71 -411.14,323.19 -646.15,492.05 0,-132.21 51.17,-1600.56 88.06,-2210 44.03,-800.19 0,-1145.16 66.05,-1600.32 0,-80.74 -14.88,-139.46 -44.03,-205.57 -168.97,-286.31 -661.03,-477.23 -984.1,-477.23 -124.95,0 -227.29,22.01 -235.02,73.3 -14.28,117.63 -36.3,249.66 -66.04,374.48 -278.87,-513.88 -829.4,-748.72 -1211.26,-748.72 -682.8,0 -1240.71,396.32 -1607.76,983.74 -352.41,565.35 -543.34,1292 -543.34,2033.7 0,411.07 73.54,829.4 183.73,1211.26 168.85,535.9 411.13,917.58 689.94,1160.04 235.02,205.51 484.67,300.88 726.89,300.88 330.33,0 565.35,-190.93 741.46,-411.13 411.14,-513.89 748.91,-1453.72 1028.07,-2305.14 0,212.77 -110.07,917.58 -110.07,1453.48 0,579.99 -22.01,932.4 -22.01,1137.97l0 0zm-1387.85 -836.84c-227.58,0 -389.06,-367.22 -389.06,-1137.96 0,-227.58 7.2,-484.61 44.09,-770.92 110.01,-917.58 513.88,-2107.01 1005.76,-2107.01 337.77,0 683.04,389.06 749.08,888.31 -176.53,646.09 -367.22,1328.89 -624.26,1901.5 -308.38,646.09 -572.61,1226.08 -785.61,1226.08l0 0zm1093.93 2224.46c-132.26,227.58 -389.12,315.7 -602.06,315.7 -212.76,0 -389.05,-80.74 -389.05,-198.31 0,-95.38 132.2,-190.75 198.13,-234.78 176.29,-139.7 859.09,-462.65 1028.01,-528.76 -51.52,235.02 -124.82,448.02 -235.02,646.15l0 0zm-6585.37 -2231.89c-168.86,0 -323.14,-535.9 -323.14,-1108.45 0,-917.82 264.47,-2202.62 726.83,-2687.05 132.26,-132.21 264.47,-190.93 389.06,-190.93 367.28,0 660.97,506.69 690.24,866.29 -198.19,902.94 -557.97,1930.95 -917.82,2547.59 -198.13,344.97 -396.25,572.55 -565.17,572.55l0 0zm2907.2 264.29c-168.86,-73.36 -227.58,-477.23 -227.58,-1005.75 0,-646.09 80.74,-1512.38 146.84,-2143.66 36.65,-337.83 58.72,-616.7 58.72,-734.26 -14.64,-491.87 -638.72,-888.37 -983.69,-888.37 -124.82,0 -205.56,51.52 -213,161.48 -14.63,168.92 -22.01,286.49 -44.03,403.94 -337.59,-477.23 -873.73,-748.91 -1424.27,-748.91 -198.13,0 -403.69,36.66 -594.62,110.19 -925.02,374.42 -1387.62,1747.22 -1387.62,2892.56l0 117.45c29.46,719.39 227.58,1402.19 528.7,1871.99 271.49,425.94 638.71,682.8 1020.39,682.8 88.12,0 190.93,-14.64 286.3,-43.85 704.76,-249.65 1248.1,-1828.2 1402.2,-2364.1 0,44.09 -14.63,88.12 -14.63,132.21 -7.2,183.55 -22.01,330.39 -22.01,469.8 0,286.3 36.65,565.41 139.4,1013.13 44.09,183.55 183.55,367.05 367.28,499.31 234.78,183.49 616.64,322.96 880.87,322.96 697.44,0 1255.41,-602.06 1446.34,-1160.04 22.01,-88.17 29.39,-168.91 29.39,-249.6 0,-286.3 -154.22,-433.14 -279.05,-469.85 -95.37,381.92 -557.97,1174.61 -961.67,1174.61 -51.47,0 -95.55,-22.01 -154.28,-44.03l0 0zm-5652.92 763.48c682.8,0 1314.08,-359.55 1593.12,-1108.51 51.35,-146.84 65.92,-257.03 65.92,-344.97 0,-315.76 -190.69,-462.6 -315.52,-470.03 -110.19,646.15 -668.17,1248.15 -1115.95,1248.15 -102.75,0 -190.93,-22.01 -271.67,-88.12 -198.31,-154.1 -286.24,-690 -286.24,-1416.82 0,-638.71 51.23,-1409.63 154.04,-2305.19 44.08,-227.58 80.74,-462.6 102.75,-682.8 257.09,-14.81 491.87,-36.83 660.73,-66.1 374.48,-66.1 513.88,-205.57 513.88,-381.86 0,-58.66 -14.63,-124.82 -36.65,-176.05 -124.83,22.01 -300.88,29.21 -513.88,29.21 -176.06,0 -366.98,-7.2 -579.99,-7.2 7.43,-205.57 7.43,-381.86 7.43,-550.78 0,-300.88 -7.43,-506.45 -29.46,-594.62 -183.55,-748.84 -594.68,-1064.42 -917.58,-1064.42 -110.19,0 -213,36.65 -279.11,102.81 -117.39,344.97 -117.39,675.36 -117.39,1211.26 0,367.05 0,609.44 -7.43,917.76 -300.89,7.2 -557.98,29.27 -719.46,73.36 -66.1,22.01 -88.11,102.75 -88.11,190.93 0,132.03 44.08,278.87 44.08,278.87 58.67,0 359.79,22.01 748.84,36.83 -7.38,146.66 -22.01,337.59 -22.01,455.22 -44.08,895.51 -73.54,1769.24 -73.54,2444.6 0,565.41 22.01,969.05 95.55,1196.63 205.57,580.05 587.25,1071.86 1387.62,1071.86l0 0zm-4808.87 -2709.07c124.82,-359.61 235.02,-726.59 337.77,-1086.44 190.93,352.41 359.85,704.82 499.25,1079.24 139.46,330.39 352.4,969.1 352.4,1453.48 0,264.47 -66.1,492.11 -257.03,587.42 -73.3,36.71 -139.46,51.52 -212.76,51.52 -484.61,0 -1218.7,-484.67 -1277.43,-719.69 102.81,-322.9 381.68,-851.42 557.8,-1365.54l0 0zm-124.83 -2907.2c-29.21,102.81 -43.85,198.37 -43.85,315.76 0,132.21 22.01,278.87 58.66,418.57 -102.75,506.45 -249.65,1035.15 -403.87,1526.96 -146.84,469.85 -315.58,880.93 -469.85,1225.95 -36.65,-29.27 -58.67,-65.92 -66.1,-87.93 -315.52,109.95 -411.07,403.63 -411.07,704.81 0,183.49 29.46,359.61 110.19,513.83 455.16,917.58 1732.58,1189.25 2650.34,1189.25 557.97,0 1416.82,-256.8 1982.24,-704.75 286.31,-234.84 521.08,-528.52 521.08,-932.45 0,-308.32 -190.75,-403.69 -308.31,-447.78 -124.83,330.39 -308.38,609.5 -609.26,851.71 -323.2,256.85 -491.81,344.97 -734.26,491.81 279.1,-535.9 367.22,-947.03 367.22,-1262.79 0,-814.77 -367.22,-1446.28 -704.82,-2114.45 0,0 -249.6,-469.79 -447.96,-836.78 -58.72,-102.81 -80.74,-205.57 -80.74,-300.94 0,-161.72 58.66,-337.78 146.84,-447.96 110.19,-146.84 381.86,-183.55 381.86,-330.39 0,-88.18 -110.19,-176.12 -271.67,-220.15 -235.02,-66.16 -543.34,-102.81 -624.08,-102.81 -477.23,0 -902.94,168.91 -1042.59,550.53l0 0zm-1732.59 4896.82c-322.96,0 -337.59,-491.81 -337.59,-844.22 0,-469.79 73.36,-1013.13 80.74,-1204.06 36.65,-396.49 80.74,-858.91 80.74,-1262.79 0,-264.23 -22.01,-513.88 -80.74,-704.57 -146.84,-470.03 -734.26,-881.17 -1284.8,-881.17 -205.57,0 -389.06,58.72 -557.97,176.29 -227.58,161.48 -469.8,682.8 -704.82,1255.42 -278.87,682.74 -469.8,1409.62 -528.52,1622.39 0,22.01 -7.38,29.45 -7.38,44.09 0,-389.12 110.19,-1108.57 110.19,-1725.21 0,-286.31 -14.81,-557.97 -80.74,-704.82 -176.29,-411.14 -550.77,-638.71 -881.17,-638.71 -66.1,0 -139.4,14.63 -190.69,29.27 21.83,154.28 29.28,345.21 29.28,579.99 0,477.24 -51.29,1130.77 -95.37,1740.03 -44.09,506.68 -88.18,1079.23 -88.18,1438.84 0,183.49 7.44,374.48 44.09,565.41 117.39,763.48 668.16,1255.35 924.96,1255.35 80.8,0 132.26,-44.08 132.26,-154.04l0 -80.8c0,-337.77 330.4,-1519.82 704.82,-2584.18 205.57,-594.86 440.34,-1152.59 638.71,-1519.87 161.48,-278.87 300.89,-447.72 403.69,-447.72 190.93,0 249.6,234.96 249.6,557.91 0,293.74 -44.09,646.15 -73.3,947.03 -29.45,425.94 -73.54,866.29 -73.54,1277.42 0,323.14 29.46,653.53 124.83,954.41 286.31,895.8 1093.88,1049.84 1409.63,1049.84 176.11,0 396.49,-102.81 609.26,-271.67 330.33,-242.22 587.43,-609.26 697.62,-925.02 29.21,-88.17 51.29,-190.93 51.29,-256.8 0,-279.1 -176.11,-440.58 -308.38,-462.65 -58.67,352.4 -322.96,763.54 -602.01,998.56 -139.46,110.01 -271.67,176.06 -396.49,176.06l0 0zm-8369.18 -1563.67c-66.17,-257.03 -499.31,-271.67 -565.41,-271.67 -866.29,0 -1512.38,800.19 -1512.38,1578.54 0,300.88 88.18,594.62 322.96,844.28 389.3,418.27 1042.59,609.2 1688.68,609.2 719.45,0 1512.45,-234.78 1938.15,-602 829.64,-704.82 1255.35,-1776.68 1255.35,-2995.38 0,-1130.59 -95.31,-2180.37 -95.31,-3237.59 0,-939.59 66.1,-1798.68 337.53,-2187.74 14.88,-22.08 22.08,-36.65 22.08,-58.72 0,-154.28 -477.05,-271.67 -969.1,-271.67 -396.26,0 -807.57,80.74 -1064.43,286.3 -337.77,257.03 -866.29,837.02 -1299.44,1607.76 -403.87,719.45 -726.83,1512.38 -726.83,2268.72 0,895.51 513.89,1453.48 998.5,1761.86 234.84,-102.81 756.11,-521.32 756.11,-917.58 0,-73.54 -7.43,-124.83 -44.09,-190.93 -242.22,-491.87 -616.64,-822.2 -616.64,-1336.15 0,-1072.03 792.99,-2055.72 1446.28,-2738.52 -124.83,697.44 -154.28,1343.53 -154.28,1938.15 0,455.16 7.43,939.83 22.07,1395 7.38,381.68 22.01,858.91 22.01,1189.24 0,213.01 0,425.95 -14.63,587.43 -66.1,1123.15 -235.02,2129.08 -815,2518.14 -212.77,146.9 -491.81,212.94 -704.58,212.94 -594.86,0 -1145.39,-433.32 -1145.39,-969.28 0,-425.71 271.67,-866.24 917.82,-1020.34l0 0z"/>
  </g>
 </g>
</svg>
